<svg width="84" height="42" viewBox="0 0 84 42" fill="none" xmlns="http://www.w3.org/2000/svg">
<path d="M31.9869 1.82764L2.61518 21.8925L1.3479 21.4348L28.9448 2.60607C25.6941 3.45612 22.3064 3.37833 18.9716 2.42553L19.7936 1.85568C23.6048 2.95793 27.4471 2.55003 30.7788 1.39795L31.9869 1.82764Z" fill="white" stroke="white"/>
<path d="M55.6528 24.3142C53.1432 26.0268 49.5624 27.1072 45.6547 25.7029C45.4523 25.6282 45.2623 25.5535 45.088 25.4787C41.9307 24.1056 42.8866 22.2125 45.2779 20.5809L53.9029 14.6928C56.4312 12.9678 60.012 11.9092 63.8575 13.2855C64.0754 13.3633 64.2747 13.4442 64.4647 13.5252C67.6376 14.9046 66.6661 16.8008 64.2965 18.4199L55.6528 24.3142ZM46.3334 25.239C49.5966 26.4191 52.5267 25.3698 54.5786 23.9779L63.2596 18.0588C65.2337 16.7043 66.3204 15.0977 63.6769 13.9456C63.5243 13.8802 63.3593 13.8148 63.1818 13.7525C59.9186 12.5724 56.9886 13.6217 54.8806 15.0447L46.2214 20.9732C44.2815 22.2903 43.1948 23.8938 45.8384 25.0459C45.991 25.1113 46.1529 25.1736 46.3334 25.239Z" fill="white" stroke="white"/>
<path d="M80.9043 19.4233L81.8819 19.7752L36.7112 34.1481L35.7336 33.7994L80.9043 19.4233Z" fill="white" stroke="white"/>
<path d="M63.819 38.9244C61.3094 40.637 57.7348 41.7579 53.8489 40.363C53.634 40.2851 53.4347 40.2073 53.251 40.1264C50.0532 38.7346 51.0746 36.8103 53.4441 35.188L61.9601 29.3809C64.4324 27.687 68.0506 26.5879 71.9583 27.9922C72.17 28.0669 72.3693 28.1479 72.553 28.2258C75.729 29.6083 74.6703 31.517 72.3163 33.1081L63.819 38.9244ZM54.5619 39.8742C57.8064 41.045 60.7333 39.9956 62.804 38.5944L71.3574 32.7686C73.3346 31.4111 74.3932 29.8355 71.7186 28.671C71.5722 28.6056 71.4134 28.5433 71.2452 28.4841C67.9821 27.304 65.0894 28.3316 62.9814 29.7546L54.4498 35.5897C52.4851 36.9192 51.414 38.5228 54.0949 39.6904C54.2381 39.7527 54.3938 39.815 54.5619 39.8742Z" fill="white" stroke="white"/>
<path d="M32.037 24.9627C27.9362 27.765 22.2288 29.1662 16.0978 26.9617C15.7335 26.8309 15.3942 26.697 15.0797 26.56C10.0884 24.3866 11.1346 21.4628 14.9925 18.8255L29.9165 8.63739C34.0734 5.80079 39.7247 4.43387 45.8556 6.63839C46.2262 6.77228 46.5687 6.9062 46.8894 7.04632C51.8745 9.21658 50.8718 12.1092 46.9641 14.7746L32.037 24.9627ZM16.9386 26.3794C22.263 28.3068 27.1453 26.9959 30.7884 24.5111L45.7685 14.2919C49.1717 11.9691 50.2336 9.44076 45.8744 7.54139C45.6128 7.42618 45.3294 7.31409 45.0274 7.20511C39.6843 5.29017 34.802 6.60107 31.1963 9.06091L16.2349 19.2708C12.8253 21.6154 11.7417 24.1499 16.0636 26.0306C16.3314 26.1521 16.6241 26.2673 16.9386 26.3794Z" fill="white" stroke="white"/>
</svg>
