<svg width="99" height="45" viewBox="0 0 99 45" fill="none" xmlns="http://www.w3.org/2000/svg">
<path d="M41.0739 2.21974C46.1586 4.43359 44.7793 7.26085 40.8747 9.92308C32.7105 15.5091 14.7412 11.8879 4.40366 18.7038L4.2386 18.819L19.4771 24.2991L18.5991 24.9001L2.09326 18.9591L2.73467 18.5326C13.723 11.0347 31.6985 14.8832 39.57 9.50269C43.0387 7.12381 44.499 4.64844 40.0028 2.68991C39.7288 2.57159 39.4361 2.45327 39.1185 2.34118C33.7349 0.407557 28.8245 1.96437 25.3091 4.37439L23.7149 5.46421L22.5099 5.03147L24.0668 3.96341C28.1333 1.20154 33.8314 -0.426881 40.0059 1.79631C40.3889 1.93643 40.7439 2.07651 41.0739 2.21974Z" fill="white" stroke="white"/>
<path d="M70.8418 27.0362C68.3134 28.7612 64.7327 29.8199 60.8436 28.425C60.6412 28.3502 60.4513 28.2754 60.277 28.2007C57.1197 26.8276 58.0724 24.9344 60.4669 23.2997L69.0919 17.4117C71.6015 15.6991 75.201 14.628 79.0465 16.0043C79.2644 16.0821 79.4637 16.1631 79.6536 16.244C82.8265 17.6234 81.855 19.5197 79.4668 21.1482L70.8418 27.0362ZM61.5038 27.9703C64.7856 29.1379 67.697 28.1011 69.7458 26.6906L78.4268 20.7714C80.4196 19.4263 81.5094 17.8196 78.8472 16.6613C78.6946 16.5959 78.5296 16.5306 78.349 16.4652C75.0858 15.2851 72.1558 16.3344 70.0696 17.7667L61.3885 23.6859C59.4612 25.0154 58.3558 26.619 61.0398 27.7866C61.183 27.8489 61.3387 27.9111 61.5038 27.9703Z" fill="white" stroke="white"/>
<path d="M68.6744 12.2713L67.7963 12.8722L54.4291 8.07714L41.5165 16.0544C44.87 15.3756 47.8592 15.6185 50.9356 16.7363C51.2687 16.8578 51.5801 16.9793 51.8696 17.1069C56.6959 19.2087 55.4255 22.0826 51.6766 24.6421L47.2271 27.6842C43.1824 30.4554 37.5216 31.9127 31.453 29.7362C31.0949 29.6085 30.7618 29.4777 30.4535 29.3407C25.512 27.1891 26.6236 24.2622 30.4504 21.6436L31.7146 20.7811L32.9818 21.2419L31.7176 22.1044C28.3517 24.3836 27.1499 26.9151 31.4343 28.7802C31.699 28.8954 31.9823 29.0075 32.2906 29.1165C37.5933 31.0346 42.4071 29.6552 45.9816 27.2358L50.3751 24.2248C53.6943 21.9518 54.8931 19.4328 50.5557 17.5459C50.2972 17.4338 50.0232 17.3249 49.7274 17.2159C46.4456 16.0483 42.8555 16.1012 39.5611 17.2315L39.2124 17.4494L38.0292 17.026L54.1925 7.06201L68.6744 12.2713Z" fill="white" stroke="white"/>
<path d="M96.0973 22.1443L97.0719 22.4962L51.8794 36.8598L50.9048 36.511L96.0973 22.1443Z" fill="white" stroke="white"/>
<path d="M78.9878 41.6359C76.4782 43.3485 72.9254 44.4788 69.0177 43.0745C68.8059 42.9998 68.6067 42.9188 68.4229 42.8409C65.2438 41.4584 66.262 39.5311 68.6347 37.912L77.1507 32.1048C79.623 30.411 83.2412 29.3118 87.1271 30.7068C87.3419 30.7846 87.5412 30.8625 87.7249 30.9435C90.9165 32.3322 89.8422 34.2316 87.5038 35.832L78.9878 41.6359ZM69.7307 42.5856C72.9939 43.7657 75.9239 42.7164 77.9945 41.3152L86.5261 35.4801C88.5033 34.1226 89.562 32.547 86.8873 31.3825C86.7409 31.3171 86.5822 31.2548 86.414 31.1956C83.1695 30.0249 80.2582 31.0431 78.172 32.4754L69.6404 38.3105C67.6756 39.6401 66.5858 41.2343 69.2668 42.4019C69.41 42.4642 69.5657 42.5264 69.7307 42.5856Z" fill="white" stroke="white"/>
</svg>
