<svg width="94" height="43" viewBox="0 0 94 43" fill="none" xmlns="http://www.w3.org/2000/svg">
<path d="M20.6535 18.4044L17.1599 17.1432L10.2568 21.8668L8.9708 21.4184L15.9113 16.6918L1.65045 11.5603L2.5441 10.9283L38.0685 1.25391L39.6254 1.802L18.0349 16.5391L21.5284 17.8003L20.6535 18.4044ZM3.71797 11.4047L16.7925 16.0908L36.7327 2.47448L3.71797 11.4047Z" fill="white" stroke="white"/>
<path d="M65.9553 25.2669C63.4456 26.9795 59.8648 28.06 55.9571 26.6557C55.7547 26.5841 55.5679 26.5093 55.3935 26.4314C52.2362 25.0583 53.2232 23.1621 55.6021 21.5398L64.2458 15.6424C66.7554 13.9299 70.3176 12.8587 74.1599 14.235C74.3779 14.3129 74.5802 14.3938 74.7702 14.4748C77.9586 15.8604 76.9685 17.7504 74.5989 19.3665L65.9553 25.2669ZM56.6546 26.198C59.8991 27.3687 62.8477 26.3287 64.8966 24.9182L73.5776 18.999C75.558 17.6383 76.6509 16.0441 73.9669 14.8764C73.8205 14.8141 73.6679 14.7519 73.4998 14.6927C70.2179 13.5251 67.3066 14.562 65.2204 15.9943L56.5394 21.9135C54.5746 23.243 53.5035 24.8465 56.1844 26.0142C56.3339 26.0733 56.4895 26.1357 56.6546 26.198Z" fill="white" stroke="white"/>
<path d="M91.2485 20.3718L92.2262 20.7206L47.015 35.0998L46.0373 34.7479L91.2485 20.3718Z" fill="white" stroke="white"/>
<path d="M74.1417 39.8645C71.6134 41.5895 68.0575 42.6979 64.1716 41.3029C63.9568 41.2251 63.7575 41.1473 63.5706 41.0663C60.376 39.6745 61.3817 37.7595 63.7699 36.1497L72.2642 30.3333C74.7365 28.6395 78.3733 27.5496 82.2623 28.9446C82.4772 29.0224 82.6733 29.1003 82.8602 29.1813C86.0517 30.57 84.9775 32.4693 82.6578 34.0604L74.1417 39.8645ZM64.8846 40.8141C68.1478 41.9942 71.0778 40.9448 73.108 39.5437L81.68 33.7054C83.651 32.3541 84.7097 30.7848 82.0568 29.6296C81.9011 29.5611 81.7299 29.4957 81.5493 29.4303C78.2861 28.2502 75.4121 29.2684 73.3259 30.7007L64.7539 36.5389C62.8327 37.8623 61.7273 39.4596 64.3896 40.6179C64.539 40.6864 64.7071 40.7518 64.8846 40.8141Z" fill="white" stroke="white"/>
<path d="M42.3777 25.9086C38.277 28.711 32.5321 30.1122 26.3981 27.9076C26.0463 27.78 25.7162 27.6493 25.4111 27.5154C20.398 25.3327 21.4224 22.412 25.2896 19.7684L40.2137 9.58033C44.3705 6.74373 50.0406 5.38612 56.1746 7.59064C56.5452 7.72453 56.8877 7.85845 57.2084 7.99857C62.1903 10.1688 61.1908 13.0615 57.3018 15.7175L42.3777 25.9086ZM27.242 27.3286C32.5851 29.2466 37.4487 27.945 41.1105 25.4509L56.0719 15.241C59.4658 12.9244 60.5494 10.3899 56.212 8.50296C55.9411 8.38463 55.6484 8.26945 55.3339 8.15736C50.0126 6.24865 45.1272 7.5408 41.5215 10.0038L26.5632 20.2323C23.1318 22.5676 22.0513 25.1022 26.3701 26.9829C26.6379 27.1012 26.9275 27.2165 27.242 27.3286Z" fill="white" stroke="white"/>
</svg>
