<svg width="94" height="46" viewBox="0 0 94 46" fill="none" xmlns="http://www.w3.org/2000/svg">
<path d="M41.9764 28.5128C37.5829 31.2093 31.7198 32.4455 25.8442 30.0728C25.6854 30.0105 25.5328 29.9451 25.3865 29.8797C20.0215 27.5444 21.3137 24.5398 25.6293 21.9149L41.637 12.144C46.0865 9.43821 51.8936 8.21138 57.7692 10.584C57.9155 10.6432 58.0556 10.7024 58.1926 10.7615C63.5825 13.1062 62.3432 16.0922 57.984 18.742L41.9764 28.5128ZM26.7285 29.531C31.8288 31.5829 36.8699 30.4153 40.7838 28.0302L56.8475 18.2282C60.5902 15.9271 61.9166 13.3303 57.2305 11.2908C57.1122 11.2379 56.9876 11.1881 56.86 11.1352C51.7597 9.08323 46.7372 10.2415 42.8825 12.6111L26.8375 22.4037C23.0014 24.739 21.6905 27.3421 26.3611 29.3722C26.4794 29.4283 26.6039 29.4812 26.7285 29.531Z" fill="white" stroke="white"/>
<path d="M72.1551 43.3225C69.4586 44.9728 65.772 45.9879 62.0324 44.4902C61.9546 44.459 61.8767 44.4248 61.802 44.3936C58.3613 42.8959 59.585 40.9311 62.2254 39.3151L71.3456 33.7354C74.0047 32.1256 77.7349 31.1292 81.4776 32.6269C81.5554 32.6581 81.6333 32.6923 81.708 32.7235C85.1455 34.2212 83.8814 36.1672 81.3001 37.7521L72.1551 43.3225ZM62.8108 44.0293C65.9464 45.281 68.9853 44.3189 71.1805 42.9707L80.3597 37.3785C82.5643 36.0271 83.788 34.4266 80.9109 33.1749C80.8486 33.1469 80.7863 33.122 80.7241 33.0971C77.5699 31.836 74.5869 32.767 72.3326 34.1463L63.1751 39.748C61.0018 41.0588 59.7283 42.6904 62.6271 43.9515C62.6863 43.9764 62.7454 44.0044 62.8108 44.0293Z" fill="white" stroke="white"/>
<path d="M91.3481 24.3093L92.2885 24.6799L45.6138 37.826L44.6921 37.4431L91.3481 24.3093Z" fill="white" stroke="white"/>
<path d="M21.3195 20.1932C16.926 22.8896 11.0629 24.1258 5.1873 21.7532C5.04095 21.694 4.90083 21.6348 4.76382 21.5757C-0.669616 19.2123 0.619446 16.1983 4.92572 13.5765L20.9334 3.80565C25.3642 1.09049 31.19 -0.126983 37.1091 2.26124C37.2586 2.3204 37.4049 2.38265 37.5451 2.44492C42.8789 4.76776 41.6458 7.62621 37.3645 10.2511L37.1247 10.3881L35.9757 9.9241L36.2529 9.7466C39.9769 7.4767 41.2628 5.01069 36.5923 2.97743C36.4677 2.9245 36.3401 2.86844 36.2062 2.81551C31.0623 0.744887 26.043 1.90315 22.0917 4.32562L13.4137 9.61585C17.5986 8.61323 20.7185 8.7814 24.4425 10.2916C24.5858 10.3476 24.7228 10.4067 24.8535 10.4628C30.0815 12.7389 28.727 15.6689 24.4768 18.2751L21.3195 20.1932ZM6.13073 21.1771C11.2528 23.2384 16.2161 22.0925 20.13 19.7105L23.2313 17.8081C26.9584 15.5351 28.2662 12.9319 23.5987 10.9018C23.4804 10.8489 23.3558 10.7991 23.2313 10.7461C18.0687 8.66618 12.9187 9.91785 9.22578 12.1753L6.1214 14.056C2.30709 16.3975 1.03048 18.9633 5.75088 21.0183C5.87231 21.0744 5.99996 21.1242 6.13073 21.1771Z" fill="white" stroke="white"/>
<path d="M65.613 28.5101C62.9165 30.1604 59.2267 31.1349 55.4841 29.6372C55.4031 29.6061 55.3284 29.5719 55.2505 29.5408C51.8534 28.0618 53.0242 26.1281 55.6615 24.5152L64.9311 18.8514C67.6462 17.2104 71.3391 16.2359 75.0008 17.7149C75.0818 17.746 75.1596 17.7802 75.2344 17.8145C78.6719 19.3122 77.5198 21.252 74.8638 22.8587L65.613 28.5101ZM56.2033 29.1889C59.3201 30.4531 62.3591 29.4909 64.5761 28.152L73.883 22.4664C76.0813 21.1213 77.3548 19.4959 74.5026 18.2536C74.431 18.2224 74.3594 18.1912 74.2847 18.1632C71.1492 16.8897 68.1289 17.8612 65.8745 19.2218L56.5676 24.9076C54.4223 26.2216 53.1332 27.8563 55.9885 29.0987C56.0539 29.1267 56.1286 29.1578 56.2033 29.1889Z" fill="white" stroke="white"/>
</svg>
