<svg width="505" height="513" viewBox="0 0 505 513" fill="none" xmlns="http://www.w3.org/2000/svg">
<path d="M363.674 46.3648L385.912 37.6667L403.736 52.3018M363.674 46.3648L341.436 55.0629L344.307 31.4688L366.795 22.6729L363.674 46.3648ZM363.674 46.3648L400.571 75.1464L421.56 66.9369L403.736 52.3018M403.736 52.3018L359.26 69.698L378.333 83.8445" stroke="#FE4A0F" stroke-width="0.5"/>
<path d="M375.017 107.037L393.83 122.726L415.318 114.321L397.005 98.4362" stroke="#FE4A0F" stroke-width="0.5"/>
<path d="M350.157 139.231L370.646 131.217M370.646 131.217L377.583 84.1375L399.572 75.5371L389.872 145.016L370.646 131.217Z" stroke="#FE4A0F" stroke-width="0.5"/>
<path d="M258.337 327.257L235.85 336.053L233.174 360.147L254.162 351.937M258.337 327.257L254.162 351.937M258.337 327.257L276.65 343.142M254.162 351.937L273.193 365.237L276.65 343.142M276.65 343.142L279.826 318.852L303.313 309.666L303.139 310.591M276.65 343.142L298.638 334.541M298.638 334.541L315.67 348.622M298.638 334.541L303.139 310.591M294.681 356.832L315.67 348.622M315.67 348.622L319.736 325.137M303.139 310.591L319.736 325.137M319.736 325.137L343.223 315.95M338.657 339.631L343.223 315.95M343.223 315.95L360.645 331.031L383.133 322.235L364.212 307.741L343.223 315.95Z" stroke="#FE4A0F" stroke-width="0.5"/>
<path d="M294.681 356.832L277.65 342.751" stroke="#FE4A0F" stroke-width="0.5"/>
<path d="M339.157 339.436L316.669 348.231" stroke="#FE4A0F" stroke-width="0.5"/>
<path d="M309.642 263.978L302.314 310.058L324.302 301.457L331.63 255.377M309.642 263.978L287.654 272.578L283.783 296.563L349.248 270.957L353.618 246.777L331.63 255.377M309.642 263.978L331.63 255.377" stroke="#FE4A0F" stroke-width="0.5"/>
<path d="M328.259 279.166L345.986 293.551L367.474 285.146M367.474 285.146L350.247 270.565L385.7 299.336C391.965 296.886 399.951 293.762 408.188 290.54M367.474 285.146L389.712 276.448M474.152 264.739L470.781 288.528C463.909 283.726 450.465 274.004 451.664 273.535C452.53 273.196 429.519 282.197 408.188 290.54M474.152 264.739L455.926 250.549L478.414 241.753L495.64 256.334M474.152 264.739L495.64 256.334M495.64 256.334L493.269 279.733L448.793 297.129L411.95 267.75L389.712 276.448M389.712 276.448L408.188 290.54" stroke="#FE4A0F" stroke-width="0.5"/>
<path d="M451.86 274.034L434.633 259.454M434.633 259.454L411.146 268.641L415.212 245.155M434.633 259.454L437.2 236.555L415.212 245.155M415.212 245.155L396.291 230.661L374.802 239.066L393.224 253.756L415.212 245.155Z" stroke="#FE4A0F" stroke-width="0.5"/>
<path d="M286.155 273.164L248.921 242.785L227.932 250.995L246.94 267.184L291.916 249.592L308.643 264.368L330.631 255.768L313.904 240.991L317.372 217.452M298.853 202.512L300.92 179.809L320.841 193.912L317.372 217.452M298.853 202.512L317.372 217.452M298.853 202.512L274.366 212.09L293.885 226.638M317.372 217.452L338.861 209.047L352.334 115.333M352.334 115.333L419.297 89.141L411.36 136.611L429.782 151.301L451.27 142.896L434.348 127.62L367.384 153.812L329.915 124.102M352.334 115.333L334.412 100.448L311.424 109.439L329.915 124.102M352.334 115.333L329.915 124.102M283.783 296.563L261.795 305.163L243.178 289.974L264.167 281.764L283.783 296.563Z" stroke="#FE4A0F" stroke-width="0.5"/>
<path d="M330.541 124.433L326.779 147.223L363.818 177.102M363.818 177.102L386.306 168.306M363.818 177.102L360.251 200.391M404.727 182.995L408.793 159.51L386.306 168.306M404.727 182.995L441.266 213.069L419.778 221.474L401.009 206.633M404.727 182.995L382.239 191.791M382.239 191.791L386.306 168.306M382.239 191.791L360.251 200.391M382.239 191.791L401.009 206.633M360.251 200.391L338.263 208.992M401.009 206.633L378.896 215.282M338.263 208.992L356.783 223.931L378.896 215.282M338.263 208.992L317.275 217.201M338.263 208.992L334.795 232.532L313.306 240.937M378.896 215.282L341.83 185.702L320.841 193.911L317.275 217.201M317.275 217.201L313.306 240.937M291.818 249.341L313.306 240.937" stroke="#FE4A0F" stroke-width="0.5"/>
<path d="M293.288 226.583L316.275 217.592" stroke="#FE4A0F" stroke-width="0.5"/>
<path d="M401.856 206.59L423.594 198.087M423.594 198.087L445.333 189.584L447.704 166.186L426.216 174.59L423.594 198.087Z" stroke="#FE4A0F" stroke-width="0.5"/>
<path d="M231.443 229.454L253.681 220.755L271.505 235.391M231.443 229.454L209.205 238.152L212.076 214.558L234.564 205.762L231.443 229.454ZM231.443 229.454L268.34 258.235L289.329 250.026L271.505 235.391M271.505 235.391L227.029 252.787L246.102 266.933" stroke="#FE4A0F" stroke-width="0.5"/>
<path d="M242.786 290.126L261.599 305.815L283.087 297.41L264.774 281.525" stroke="#FE4A0F" stroke-width="0.5"/>
<path d="M217.926 322.32L238.415 314.306M238.415 314.306L245.353 267.227L267.341 258.626L257.641 328.105L238.415 314.306Z" stroke="#FE4A0F" stroke-width="0.5"/>
<path d="M126.107 510.346L103.619 519.142L100.943 543.236L121.932 535.026M126.107 510.346L121.932 535.026M126.107 510.346L144.42 526.23M121.932 535.026L140.962 548.325L144.42 526.23M144.42 526.23L147.595 501.941L171.082 492.754L170.908 493.68M144.42 526.23L166.408 517.63M166.408 517.63L183.439 531.711M166.408 517.63L170.908 493.68M162.45 539.92L183.439 531.711M183.439 531.711L187.505 508.226M170.908 493.68L187.505 508.226M187.505 508.226L210.992 499.039M206.426 522.72L210.992 499.039M210.992 499.039L228.415 514.119L250.902 505.324L231.981 490.829L210.992 499.039Z" stroke="#FE4A0F" stroke-width="0.5"/>
<path d="M177.412 447.066L170.083 493.146L192.071 484.546L199.4 438.466M177.412 447.066L155.424 455.667L151.553 479.652L217.017 454.046L221.388 429.866L199.4 438.466M177.412 447.066L199.4 438.466" stroke="#FE4A0F" stroke-width="0.5"/>
<path d="M196.028 462.255L213.755 476.641L235.243 468.236M235.243 468.236L218.016 453.655L253.469 482.425C259.734 479.975 267.72 476.851 275.957 473.63M235.243 468.236L257.481 459.538M341.921 447.828L338.55 471.618C331.678 466.816 318.234 457.093 319.433 456.624C320.299 456.286 297.288 465.286 275.957 473.63M341.921 447.828L323.695 433.639L346.183 424.843L363.41 439.424M341.921 447.828L363.41 439.424M363.41 439.424L361.038 462.822L316.562 480.218L279.719 450.839L257.481 459.538M257.481 459.538L275.957 473.63" stroke="#FE4A0F" stroke-width="0.5"/>
<path d="M319.629 457.124L302.402 442.543M302.402 442.543L278.915 451.73L282.981 428.245M302.402 442.543L304.969 419.644L282.981 428.245M282.981 428.245L264.06 413.751L242.571 422.156L260.993 436.845L282.981 428.245Z" stroke="#FE4A0F" stroke-width="0.5"/>
<path d="M153.924 456.252L116.69 425.874L95.7011 434.083L114.709 450.272L159.685 432.68L176.412 447.456L198.4 438.856L181.673 424.08L185.142 400.54M166.622 385.601L168.689 362.897L188.61 377L185.142 400.54M166.622 385.601L185.142 400.54M166.622 385.601L142.135 395.178L161.654 409.727M185.142 400.54L206.63 392.135L220.103 298.421M220.103 298.421L287.066 272.229L279.13 319.7L297.551 334.389L319.04 325.984L302.117 310.708L235.153 336.901L197.684 307.19M220.103 298.421L202.181 283.536L179.193 292.528L197.684 307.19M220.103 298.421L197.684 307.19M151.552 479.651L129.564 488.251L110.947 473.062L131.936 464.853L151.552 479.651Z" stroke="#FE4A0F" stroke-width="0.5"/>
<path d="M198.31 307.522L194.548 330.312L231.587 360.191M231.587 360.191L254.075 351.395M231.587 360.191L228.021 383.481M272.497 366.085L276.563 342.599L254.075 351.395M272.497 366.085L309.036 396.159L287.547 404.564L268.778 389.722M272.497 366.085L250.009 374.881M250.009 374.881L254.075 351.395M250.009 374.881L228.021 383.481M250.009 374.881L268.778 389.722M228.021 383.481L206.033 392.081M268.778 389.722L246.665 398.372M206.033 392.081L224.552 407.021L246.665 398.372M206.033 392.081L185.044 400.291M206.033 392.081L202.564 415.621L181.076 424.026M246.665 398.372L209.599 368.792L188.611 377.001L185.044 400.291M185.044 400.291L181.076 424.026M159.587 432.431L181.076 424.026" stroke="#FE4A0F" stroke-width="0.5"/>
<path d="M161.057 409.674L184.045 400.682" stroke="#FE4A0F" stroke-width="0.5"/>
<path d="M269.626 389.679L291.364 381.176M291.364 381.176L313.102 372.673L315.473 349.275L293.985 357.68L291.364 381.176Z" stroke="#FE4A0F" stroke-width="0.5"/>
<path d="M453.167 145.288L475.114 136.704L492.704 151.148M453.167 145.288L431.22 153.873L434.054 130.587L456.247 121.907L453.167 145.288ZM453.167 145.288L489.581 173.693L510.295 165.591L492.704 151.148M492.704 151.148L448.811 168.316L467.635 182.277" stroke="#FE4A0F" stroke-width="0.5"/>
<path d="M464.362 205.166L482.928 220.649L504.135 212.355L486.062 196.678" stroke="#FE4A0F" stroke-width="0.5"/>
<path d="M439.828 236.938L460.048 229.029M460.048 229.029L466.895 182.566L488.595 174.078L479.022 242.647L460.048 229.029Z" stroke="#FE4A0F" stroke-width="0.5"/>
<path d="M349.21 422.502L327.017 431.183L324.376 454.961L345.09 446.859M349.21 422.502L345.09 446.859M349.21 422.502L367.283 438.179M345.09 446.859L363.871 459.984L367.283 438.179M367.283 438.179L370.417 414.207L393.597 405.141L393.425 406.055M367.283 438.179L388.983 429.691M388.983 429.691L405.792 443.587M388.983 429.691L393.425 406.055M385.078 451.689L405.792 443.587M405.792 443.587L409.805 420.41M393.425 406.055L409.805 420.41M409.805 420.41L432.984 411.343M428.478 434.714L432.984 411.343M432.984 411.343L450.178 426.226L472.372 417.545L453.698 403.241L432.984 411.343Z" stroke="#FE4A0F" stroke-width="0.5"/>
<path d="M385.078 451.687L368.27 437.791" stroke="#FE4A0F" stroke-width="0.5"/>
<path d="M428.971 434.519L406.778 443.2" stroke="#FE4A0F" stroke-width="0.5"/>
<path d="M399.843 360.051L392.611 405.528L414.311 397.04L421.543 351.564M399.843 360.051L378.143 368.539L374.323 392.21L438.93 366.94L443.243 343.076L421.543 351.564M399.843 360.051L421.543 351.564" stroke="#FE4A0F" stroke-width="0.5"/>
<path d="M418.216 375.041L435.711 389.238L456.918 380.943M456.918 380.943L439.916 366.553L474.905 394.947C481.088 392.529 488.969 389.446 497.098 386.266M456.918 380.943L478.864 372.359M562.199 360.803L558.872 384.281C552.09 379.542 538.822 369.947 540.006 369.484C540.859 369.15 518.15 378.032 497.098 386.266M562.199 360.803L544.211 346.799L566.405 338.118L583.406 352.508M562.199 360.803L583.406 352.508M583.406 352.508L581.065 375.601L537.172 392.769L500.811 363.775L478.864 372.359M478.864 372.359L497.098 386.266" stroke="#FE4A0F" stroke-width="0.5"/>
<path d="M540.198 369.977L523.197 355.587M523.197 355.587L500.017 364.654L504.03 341.476M523.197 355.587L525.731 332.988L504.03 341.476M504.03 341.476L485.357 327.172L464.15 335.467L482.33 349.964L504.03 341.476Z" stroke="#FE4A0F" stroke-width="0.5"/>
<path d="M376.663 369.117L339.917 339.136L319.203 347.238L337.962 363.215L382.349 345.854L398.857 360.436L420.557 351.949L404.049 337.366L407.472 314.134M389.195 299.391L391.235 276.984L410.895 290.903L407.472 314.134M389.195 299.391L407.472 314.134M389.195 299.391L365.029 308.843L384.292 323.201M407.472 314.134L428.679 305.839L441.976 213.353M441.976 213.353L508.062 187.504L500.229 234.353L518.41 248.85L539.617 240.555L522.916 225.479L456.829 251.328L419.851 222.007M441.976 213.353L424.288 198.663L401.602 207.536L419.851 222.007M441.976 213.353L419.851 222.007M374.323 392.209L352.623 400.697L334.249 385.707L354.963 377.605L374.323 392.209Z" stroke="#FE4A0F" stroke-width="0.5"/>
<path d="M420.468 222.334L416.756 244.825L453.309 274.313M453.309 274.313L475.503 265.632M453.309 274.313L449.79 297.298M493.683 280.129L497.696 256.951L475.503 265.632M493.683 280.129L529.744 309.81L508.537 318.105L490.013 303.457M493.683 280.129L471.49 288.81M471.49 288.81L475.503 265.632M471.49 288.81L449.79 297.298M471.49 288.81L490.013 303.457M449.79 297.298L428.089 305.785M490.013 303.457L468.19 311.993M428.089 305.785L446.366 320.529L468.19 311.993M428.089 305.785L407.376 313.887M428.089 305.785L424.666 329.017L403.459 337.312M468.19 311.993L431.609 282.801L410.895 290.902L407.376 313.887M407.376 313.887L403.459 337.312M382.252 345.607L403.459 337.312" stroke="#FE4A0F" stroke-width="0.5"/>
<path d="M383.703 323.147L406.389 314.274" stroke="#FE4A0F" stroke-width="0.5"/>
<path d="M490.85 303.415L512.303 295.024M512.303 295.024L533.757 286.633L536.097 263.54L514.89 271.835L512.303 295.024Z" stroke="#FE4A0F" stroke-width="0.5"/>
</svg>
