<svg width="283" height="155" viewBox="0 0 283 155" fill="none" xmlns="http://www.w3.org/2000/svg">
<path d="M282.176 6.82786C282.176 3.51698 279.491 0.833252 276.181 0.833252H6.34079C3.02943 0.833252 0.346191 3.51698 0.346191 6.82786V60.1468H282.176V6.82786Z" fill="url(#paint0_linear_0_816)"/>
<g opacity="0.24">
<path d="M281.676 60.647V148.521C281.676 151.556 279.216 154.016 276.182 154.016H6.34088C3.3059 154.016 0.846741 151.556 0.846741 148.521V60.647H281.676Z" fill="white" stroke="#F0F0F0"/>
</g>
<path d="M33.8406 41.7761C33.8406 44.3121 32.9475 46.462 31.1632 48.2276C29.378 49.9917 27.2267 50.874 24.7117 50.874H24.2549C21.7189 50.874 19.569 49.9819 17.8034 48.1966C16.0393 46.4114 15.157 44.2709 15.157 41.7761V38.3067C15.157 35.9743 15.9372 33.9359 17.5002 32.1909C18.17 31.4401 18.9502 30.8213 19.8433 30.334C18.3005 29.5435 17.1051 28.2249 16.2528 26.3789C15.8268 25.4254 15.6138 24.2285 15.6138 22.7883V20.7194C15.6138 18.2447 16.3435 16.1955 17.8039 14.5717C19.4267 12.7462 21.578 11.8335 24.2554 11.8335H24.7122C27.4097 11.8335 29.5703 12.7467 31.1931 14.5717C32.6545 16.2156 33.3842 18.2644 33.3842 20.7194V22.7883C33.3842 25.1619 32.6746 27.1297 31.254 28.6911C30.6254 29.3806 29.9251 29.9292 29.1547 30.334C30.8585 31.2885 32.177 32.7381 33.1109 34.6857C33.5972 35.6799 33.8406 36.8876 33.8406 38.3067V41.7761ZM28.2719 22.2863C28.2307 19.6766 27.4092 18.0376 25.8075 17.3703C25.4419 17.2088 25.0062 17.1278 24.4988 17.1278C23.5046 17.1278 22.6924 17.4022 22.0638 17.9473C21.5564 18.3924 21.1972 18.9641 20.9843 19.6619C20.7713 20.3602 20.6849 21.2342 20.7261 22.2863C20.7865 23.9439 21.05 25.1373 21.5172 25.8661C22.1257 26.8362 23.1189 27.322 24.4993 27.322C25.8787 27.322 26.8827 26.8063 27.5118 25.7738C28.0388 24.9057 28.292 23.7427 28.2719 22.2863ZM28.0898 39.0683C28.0898 36.7958 27.5721 35.2741 26.5377 34.5032C26.0514 34.1386 25.3713 33.956 24.4993 33.956C22.9776 33.956 21.9431 34.6047 21.395 35.9027C21.0701 36.6947 20.9087 37.7493 20.9087 39.0683V40.8938C20.9087 42.1515 21.2934 43.1663 22.0643 43.9367C22.714 44.5864 23.5247 44.9309 24.4993 44.9712C26.0607 44.8902 27.1462 44.1193 27.7557 42.6589C27.978 42.1716 28.0898 41.5832 28.0898 40.8938V39.0683Z" fill="white"/>
<path d="M55.8951 41.7761C55.8951 44.3121 55.002 46.462 53.2178 48.2276C51.4325 49.9917 49.292 50.874 46.7972 50.874C44.2612 50.874 42.106 49.9873 40.331 48.2114C38.5551 46.4369 37.6684 44.292 37.6684 41.7761V20.9618C37.6684 18.4268 38.5605 16.2716 40.3457 14.4956C42.131 12.7212 44.2808 11.833 46.7972 11.833C49.3332 11.833 51.4836 12.7261 53.2487 14.5113C55.0128 16.2966 55.8956 18.4464 55.8956 20.9613L55.8951 41.7761ZM49.9314 20.8406C49.9314 19.9274 49.6066 19.1472 48.9583 18.4974C48.3086 17.8487 47.5274 17.5239 46.6152 17.5239C45.7019 17.5239 44.9256 17.8487 44.2867 18.4974C43.6478 19.1467 43.3283 19.9274 43.3283 20.8406V41.6843C43.3283 42.5976 43.6478 43.3788 44.2867 44.0275C44.9256 44.6772 45.7019 45.0021 46.6152 45.0021C47.5274 45.0021 48.3086 44.6772 48.9583 44.0275C49.6071 43.3788 49.9314 42.5976 49.9314 41.6843V20.8406Z" fill="white"/>
<path d="M68.3337 26.3486C68.3337 27.6475 67.8626 28.7634 66.9185 29.6953C65.9748 30.6296 64.854 31.0958 63.5556 31.0958C62.2375 31.0958 61.1113 30.6296 60.178 29.6953C59.2446 28.7629 58.7784 27.6475 58.7784 26.3486V15.4546C58.7784 14.1366 59.2446 13.0104 60.178 12.077C61.1113 11.1437 62.2375 10.6775 63.5556 10.6775C64.8746 10.6775 65.9998 11.1491 66.9332 12.0927C67.8665 13.0354 68.3332 14.1562 68.3332 15.4541V26.3486H68.3337ZM63.982 51.118H60.6044L80.0829 10.7688H83.4267L63.982 51.118ZM61.7306 26.2872C61.7306 26.7745 61.8984 27.1857 62.2326 27.5199C62.5668 27.8551 62.978 28.0219 63.4653 28.0219C63.9516 28.0219 64.3628 27.8551 64.697 27.5199C65.0321 27.1857 65.2 26.7745 65.2 26.2872V15.3943C65.2 14.907 65.0321 14.4958 64.697 14.1616C64.3628 13.8264 63.9516 13.6596 63.4653 13.6596C62.978 13.6596 62.5668 13.8264 62.2326 14.1616C61.8984 14.4958 61.7306 14.907 61.7306 15.3943V26.2872ZM80.5055 30.2743C81.8235 30.2743 82.9443 30.7454 83.8683 31.6895C84.7909 32.6322 85.2527 33.753 85.2527 35.0509V45.9449C85.2527 47.2639 84.7855 48.3798 83.8521 49.293C82.9188 50.2053 81.8034 50.6616 80.5055 50.6616C79.1864 50.6616 78.0602 50.2009 77.1278 49.2773C76.1945 48.3548 75.7273 47.2443 75.7273 45.9454V35.0514C75.7273 33.7334 76.1945 32.6072 77.1278 31.6738C78.0602 30.7415 79.1864 30.2743 80.5055 30.2743ZM82.1484 34.9911C82.1484 34.5038 81.9806 34.0926 81.6464 33.7584C81.3122 33.4242 80.901 33.2564 80.4137 33.2564C79.9274 33.2564 79.5167 33.4242 79.182 33.7584C78.8468 34.0926 78.679 34.5038 78.679 34.9911V45.885C78.679 46.3708 78.8468 46.782 79.182 47.1167C79.5162 47.4519 79.9274 47.6187 80.4137 47.6187C80.901 47.6187 81.3122 47.4519 81.6464 47.1167C81.9806 46.7825 82.1484 46.3713 82.1484 45.885V34.9911Z" fill="white"/>
<path d="M16.4084 107.655H18.8198C19.7654 107.655 20.4617 108.277 20.4617 109.214C20.4617 109.946 20.0348 110.484 19.4871 110.679V110.716C20.1187 110.911 20.6104 111.514 20.6104 112.331C20.6104 113.398 19.7943 114.019 18.8198 114.019H16.4084V107.655ZM17.2244 108.397V110.392H18.5783C19.2006 110.392 19.6084 109.929 19.6084 109.39C19.6084 108.723 19.2182 108.398 18.6343 108.398H17.2244V108.397ZM17.2244 111.134V113.277H18.7079C19.311 113.277 19.7561 112.905 19.7561 112.219C19.7561 111.645 19.3301 111.134 18.6529 111.134H17.2244V111.134Z" fill="#373737"/>
<path d="M25.0168 114.019H24.4412L24.3391 113.453H24.2842C24.0143 113.935 23.5883 114.131 23.1055 114.131C22.3728 114.131 21.9003 113.741 21.9003 112.656V109.14H22.6604V112.599C22.6604 113.276 22.9386 113.452 23.3469 113.452C23.8298 113.452 24.2557 112.961 24.2557 112.117V109.14H25.0173V114.019H25.0168Z" fill="#373737"/>
<path d="M29.377 110.364C29.377 110.429 29.3677 110.522 29.3677 110.54H28.5791V110.457C28.5791 110.076 28.4221 109.697 27.9024 109.697C27.3646 109.697 27.2443 110.095 27.2443 110.364C27.2443 111.431 29.4702 110.809 29.4702 112.627C29.4702 113.676 28.8112 114.13 27.9117 114.13C26.7899 114.13 26.3439 113.425 26.3439 112.701C26.3439 112.572 26.3532 112.516 26.3532 112.497H27.1516V112.589C27.1516 113.202 27.5039 113.461 27.949 113.461C28.3475 113.461 28.6816 113.212 28.6816 112.738C28.6816 111.514 26.4558 112.172 26.4558 110.42C26.4558 109.557 27.0495 109.027 27.9775 109.027C28.8858 109.028 29.377 109.641 29.377 110.364Z" fill="#373737"/>
<path d="M31.5293 108.221H30.7692V107.312H31.5293V108.221ZM31.5293 114.019H30.7692V109.139H31.5293V114.019Z" fill="#373737"/>
<path d="M36.1312 110.503V114.018H35.3701V110.559C35.3701 109.882 35.0919 109.705 34.6836 109.705C34.2017 109.705 33.7748 110.197 33.7748 111.041V114.019H33.0146V109.14H33.5893L33.6913 109.705H33.7473C34.0162 109.223 34.4431 109.028 34.925 109.028C35.6577 109.028 36.1312 109.418 36.1312 110.503Z" fill="#373737"/>
<path d="M40.983 111.319V111.802H38.3395C38.3489 112.943 38.6821 113.453 39.4068 113.453C39.8887 113.453 40.2322 113.036 40.2322 112.358H40.983C40.983 113.453 40.3333 114.131 39.3877 114.131C38.1732 114.131 37.5411 113.388 37.5411 111.579C37.5411 109.826 38.1536 109.028 39.3779 109.028C40.4452 109.028 40.983 109.687 40.983 111.319ZM38.3489 111.124H40.1856C40.1856 110.197 39.9074 109.705 39.3779 109.705C38.7007 109.705 38.4131 110.188 38.3489 111.124Z" fill="#373737"/>
<path d="M45.186 110.364C45.186 110.429 45.1766 110.522 45.1766 110.54H44.3881V110.457C44.3881 110.076 44.231 109.697 43.7109 109.697C43.173 109.697 43.0528 110.095 43.0528 110.364C43.0528 111.431 45.2787 110.809 45.2787 112.627C45.2787 113.676 44.6197 114.13 43.7202 114.13C42.5984 114.13 42.1523 113.425 42.1523 112.701C42.1523 112.572 42.1617 112.516 42.1617 112.497H42.9601V112.589C42.9601 113.202 43.3124 113.461 43.7575 113.461C44.1559 113.461 44.4901 113.212 44.4901 112.738C44.4901 111.514 42.2642 112.172 42.2642 110.42C42.2642 109.557 42.858 109.027 43.7859 109.027C44.6947 109.028 45.186 109.641 45.186 110.364Z" fill="#373737"/>
<path d="M49.4533 110.364C49.4533 110.429 49.444 110.522 49.444 110.54H48.6554V110.457C48.6554 110.076 48.4984 109.697 47.9787 109.697C47.4409 109.697 47.3206 110.095 47.3206 110.364C47.3206 111.431 49.5465 110.809 49.5465 112.627C49.5465 113.676 48.8875 114.13 47.988 114.13C46.8662 114.13 46.4202 113.425 46.4202 112.701C46.4202 112.572 46.4295 112.516 46.4295 112.497H47.2279V112.589C47.2279 113.202 47.5802 113.461 48.0248 113.461C48.4233 113.461 48.7575 113.212 48.7575 112.738C48.7575 111.514 46.5316 112.172 46.5316 110.42C46.5316 109.557 47.1253 109.027 48.0533 109.027C48.9621 109.028 49.4533 109.641 49.4533 110.364Z" fill="#373737"/>
<path d="M56.8188 111.588C56.8188 113.36 56.1701 114.131 55.3624 114.131C54.8898 114.131 54.4904 113.926 54.3235 113.592H54.2774V115.624H53.5173V109.14H54.0919L54.194 109.705H54.2406C54.4727 109.26 54.8618 109.028 55.3079 109.028C56.2344 109.028 56.8188 109.798 56.8188 111.588ZM54.2774 111.402V111.756C54.2774 112.878 54.5654 113.452 55.1494 113.452C55.7333 113.452 56.0214 112.97 56.0214 111.756V111.402C56.0214 110.188 55.7333 109.705 55.1494 109.705C54.5654 109.705 54.2774 110.281 54.2774 111.402Z" fill="#373737"/>
<path d="M60.1321 109.103V109.891H59.8813C59.3994 109.891 58.9725 110.179 58.9725 111.041V114.019H58.2124V109.14H58.787L58.8896 109.78H58.9455C59.0658 109.408 59.3072 109.028 59.7714 109.028C59.9736 109.028 60.1321 109.103 60.1321 109.103Z" fill="#373737"/>
<path d="M64.5099 111.579C64.5099 113.332 63.9068 114.13 62.7659 114.13C61.6249 114.13 61.0219 113.332 61.0219 111.579C61.0219 109.826 61.6249 109.028 62.7659 109.028C63.9068 109.028 64.5099 109.826 64.5099 111.579ZM61.8193 111.402V111.756C61.8193 112.878 62.1358 113.452 62.7663 113.452C63.3969 113.452 63.7125 112.878 63.7125 111.756V111.402C63.7125 110.281 63.3969 109.705 62.7663 109.705C62.1358 109.705 61.8193 110.281 61.8193 111.402Z" fill="#373737"/>
<path d="M68.8419 110.948H68.0543C68.0543 110.104 67.8963 109.705 67.3486 109.705C66.7455 109.705 66.4766 110.281 66.4766 111.403V111.756C66.4766 112.878 66.7372 113.453 67.3486 113.453C67.8958 113.453 68.0911 113.017 68.0911 112.211H68.8419C68.8419 113.23 68.4253 114.131 67.3486 114.131C66.1984 114.131 65.6792 113.332 65.6792 111.579C65.6792 109.826 66.2077 109.028 67.3486 109.028C68.4066 109.028 68.8419 109.705 68.8419 110.948Z" fill="#373737"/>
<path d="M73.444 111.319V111.802H70.8005C70.8098 112.943 71.143 113.453 71.8678 113.453C72.3497 113.453 72.6932 113.036 72.6932 112.358H73.444C73.444 113.453 72.7943 114.131 71.8486 114.131C70.6341 114.131 70.0021 113.388 70.0021 111.579C70.0021 109.826 70.6145 109.028 71.8388 109.028C72.9061 109.028 73.444 109.687 73.444 111.319ZM70.8098 111.124H72.6466C72.6466 110.197 72.3683 109.705 71.8388 109.705C71.1616 109.705 70.8741 110.188 70.8098 111.124Z" fill="#373737"/>
<path d="M77.6469 110.364C77.6469 110.429 77.6376 110.522 77.6376 110.54H76.849V110.457C76.849 110.076 76.692 109.697 76.1718 109.697C75.634 109.697 75.5137 110.095 75.5137 110.364C75.5137 111.431 77.7396 110.809 77.7396 112.627C77.7396 113.676 77.0806 114.13 76.1811 114.13C75.0593 114.13 74.6133 113.425 74.6133 112.701C74.6133 112.572 74.6226 112.516 74.6226 112.497H75.4205V112.589C75.4205 113.202 75.7728 113.461 76.2179 113.461C76.6164 113.461 76.9506 113.212 76.9506 112.738C76.9506 111.514 74.7247 112.172 74.7247 110.42C74.7247 109.557 75.3184 109.027 76.2464 109.027C77.1557 109.028 77.6469 109.641 77.6469 110.364Z" fill="#373737"/>
<path d="M81.9142 110.364C81.9142 110.429 81.9049 110.522 81.9049 110.54H81.1163V110.457C81.1163 110.076 80.9593 109.697 80.4396 109.697C79.9018 109.697 79.7816 110.095 79.7816 110.364C79.7816 111.431 82.0075 110.809 82.0075 112.627C82.0075 113.676 81.3484 114.13 80.4489 114.13C79.3272 114.13 78.8811 113.425 78.8811 112.701C78.8811 112.572 78.8904 112.516 78.8904 112.497H79.6888V112.589C79.6888 113.202 80.0407 113.461 80.4858 113.461C80.8842 113.461 81.2184 113.212 81.2184 112.738C81.2184 111.514 78.9925 112.172 78.9925 110.42C78.9925 109.557 79.5863 109.027 80.5142 109.027C81.423 109.028 81.9142 109.641 81.9142 110.364Z" fill="#373737"/>
<path d="M88.7613 110.364C88.7613 110.429 88.752 110.522 88.752 110.54H87.9634V110.457C87.9634 110.076 87.8063 109.697 87.2867 109.697C86.7488 109.697 86.6286 110.095 86.6286 110.364C86.6286 111.431 88.8545 110.809 88.8545 112.627C88.8545 113.676 88.1955 114.13 87.296 114.13C86.1742 114.13 85.7281 113.425 85.7281 112.701C85.7281 112.572 85.7375 112.516 85.7375 112.497H86.5359V112.589C86.5359 113.202 86.8877 113.461 87.3333 113.461C87.7317 113.461 88.0659 113.212 88.0659 112.738C88.0659 111.514 85.84 112.172 85.84 110.42C85.84 109.557 86.4338 109.027 87.3618 109.027C88.2696 109.028 88.7613 109.641 88.7613 110.364Z" fill="#373737"/>
<path d="M90.9964 109.14H91.6555V109.817H90.9964V113.008C90.9964 113.296 91.1451 113.453 91.4332 113.453H91.6555V113.982C91.5259 114.056 91.2938 114.112 91.1083 114.112C90.441 114.112 90.2363 113.545 90.2363 112.99V109.817H89.8187V109.14H90.2363L90.4032 107.786H90.9969V109.14H90.9964Z" fill="#373737"/>
<path d="M95.8112 110.392V113.128C95.8112 113.36 95.9422 113.453 96.0718 113.453H96.3682V113.982C96.2847 114.029 96.1086 114.093 95.8671 114.093C95.4687 114.093 95.19 113.852 95.0972 113.49H95.0506C94.8008 113.889 94.3734 114.13 93.8631 114.13C93.3812 114.13 92.5828 113.935 92.5828 112.757C92.5828 111.412 93.6309 111.124 95.0501 111.124V110.493C95.0501 110.029 94.9014 109.705 94.2802 109.705C93.7055 109.705 93.5284 110.104 93.5284 110.475V110.586H92.7776C92.7683 110.53 92.7683 110.466 92.7683 110.383C92.7683 109.492 93.418 109.028 94.3361 109.028C95.3195 109.028 95.8112 109.529 95.8112 110.392ZM95.0506 111.802C94.0584 111.802 93.3812 111.95 93.3812 112.711C93.3812 113.267 93.6133 113.452 94.0392 113.452C94.5221 113.452 95.0506 113.054 95.0506 112.247V111.802Z" fill="#373737"/>
<path d="M99.4388 109.103V109.891H99.188C98.7062 109.891 98.2792 110.179 98.2792 111.041V114.019H97.5191V109.14H98.0937L98.1958 109.78H98.2517C98.372 109.408 98.6134 109.028 99.0771 109.028C99.2803 109.028 99.4388 109.103 99.4388 109.103Z" fill="#373737"/>
<path d="M101.266 109.14H101.925V109.817H101.266V113.008C101.266 113.296 101.415 113.453 101.703 113.453H101.925V113.982C101.796 114.056 101.563 114.112 101.378 114.112C100.711 114.112 100.506 113.545 100.506 112.99V109.817H100.088V109.14H100.506L100.673 107.786H101.267V109.14H101.266Z" fill="#373737"/>
<path d="M105.877 110.364C105.877 110.429 105.868 110.522 105.868 110.54H105.08V110.457C105.08 110.076 104.923 109.697 104.402 109.697C103.865 109.697 103.744 110.095 103.744 110.364C103.744 111.431 105.97 110.809 105.97 112.627C105.97 113.676 105.311 114.13 104.412 114.13C103.29 114.13 102.844 113.425 102.844 112.701C102.844 112.572 102.853 112.516 102.853 112.497H103.652V112.589C103.652 113.202 104.004 113.461 104.449 113.461C104.847 113.461 105.182 113.212 105.182 112.738C105.182 111.514 102.956 112.172 102.956 110.42C102.956 109.557 103.55 109.027 104.477 109.027C105.386 109.028 105.877 109.641 105.877 110.364Z" fill="#373737"/>
<path d="M111.5 107.349V107.878H111.092C110.804 107.878 110.655 108.036 110.655 108.324V109.14H111.5V109.817H110.655V114.019H109.895V109.817H109.468V109.14H109.895V108.361C109.895 107.804 110.117 107.238 110.86 107.238C111.082 107.237 111.342 107.293 111.5 107.349Z" fill="#373737"/>
<path d="M114.44 109.103V109.891H114.19C113.708 109.891 113.281 110.179 113.281 111.041V114.019H112.521V109.14H113.095L113.198 109.78H113.254C113.374 109.408 113.615 109.028 114.08 109.028C114.282 109.028 114.44 109.103 114.44 109.103Z" fill="#373737"/>
<path d="M118.818 111.579C118.818 113.332 118.216 114.13 117.075 114.13C115.934 114.13 115.331 113.332 115.331 111.579C115.331 109.826 115.934 109.028 117.075 109.028C118.216 109.028 118.818 109.826 118.818 111.579ZM116.128 111.402V111.756C116.128 112.878 116.443 113.452 117.075 113.452C117.705 113.452 118.02 112.878 118.02 111.756V111.402C118.02 110.281 117.705 109.705 117.075 109.705C116.443 109.705 116.128 110.281 116.128 111.402Z" fill="#373737"/>
<path d="M125.432 110.503V114.018H124.672V110.559C124.672 109.882 124.403 109.705 124.042 109.705C123.587 109.705 123.207 110.197 123.207 111.041V114.019H122.446V110.559C122.446 109.882 122.177 109.705 121.816 109.705C121.361 109.705 120.971 110.198 120.971 111.041V114.019H120.211V109.14H120.786L120.888 109.705H120.944C121.203 109.223 121.594 109.028 122.056 109.028C122.539 109.028 122.92 109.232 123.096 109.733C123.356 109.27 123.819 109.028 124.284 109.028C124.97 109.028 125.432 109.418 125.432 110.503Z" fill="#373737"/>
<path d="M132.576 110.392V113.128C132.576 113.36 132.707 113.453 132.837 113.453H133.133V113.982C133.05 114.029 132.874 114.093 132.632 114.093C132.234 114.093 131.955 113.852 131.862 113.49H131.816C131.566 113.889 131.139 114.13 130.628 114.13C130.146 114.13 129.348 113.935 129.348 112.757C129.348 111.412 130.396 111.124 131.815 111.124V110.493C131.815 110.029 131.667 109.705 131.045 109.705C130.471 109.705 130.294 110.104 130.294 110.475V110.586H129.543C129.534 110.53 129.534 110.466 129.534 110.383C129.534 109.492 130.183 109.028 131.101 109.028C132.085 109.028 132.576 109.529 132.576 110.392ZM131.816 111.802C130.824 111.802 130.147 111.95 130.147 112.711C130.147 113.267 130.379 113.452 130.805 113.452C131.288 113.452 131.816 113.054 131.816 112.247V111.802Z" fill="#373737"/>
<path d="M137.402 110.503V114.018H136.641V110.559C136.641 109.882 136.362 109.705 135.954 109.705C135.472 109.705 135.045 110.197 135.045 111.041V114.019H134.285V109.14H134.86L134.962 109.705H135.018C135.287 109.223 135.714 109.028 136.196 109.028C136.929 109.028 137.402 109.418 137.402 110.503Z" fill="#373737"/>
<path d="M144.859 111.579C144.859 113.332 144.257 114.13 143.116 114.13C141.975 114.13 141.372 113.332 141.372 111.579C141.372 109.826 141.975 109.028 143.116 109.028C144.257 109.028 144.859 109.826 144.859 111.579ZM142.169 111.402V111.756C142.169 112.878 142.484 113.452 143.116 113.452C143.747 113.452 144.062 112.878 144.062 111.756V111.402C144.062 110.281 143.747 109.705 143.116 109.705C142.485 109.705 142.169 110.281 142.169 111.402Z" fill="#373737"/>
<path d="M149.953 114.019H149.109L148.598 111.236C148.506 110.735 148.451 110.114 148.451 110.114H148.412C148.412 110.114 148.357 110.726 148.265 111.236L147.764 114.019H146.919L145.705 109.14H146.54L147.151 111.886C147.244 112.284 147.346 113.045 147.346 113.045H147.383C147.383 113.045 147.448 112.387 147.531 111.886L148.023 109.14H148.904L149.405 111.886C149.488 112.377 149.553 113.045 149.553 113.045H149.591C149.591 113.045 149.665 112.443 149.785 111.886L150.397 109.14H151.167L149.953 114.019Z" fill="#373737"/>
<path d="M155.326 110.503V114.018H154.564V110.559C154.564 109.882 154.286 109.705 153.878 109.705C153.396 109.705 152.969 110.197 152.969 111.041V114.019H152.209V109.14H152.784L152.886 109.705H152.942C153.211 109.223 153.638 109.028 154.119 109.028C154.853 109.028 155.326 109.418 155.326 110.503Z" fill="#373737"/>
<path d="M160.176 111.319V111.802H157.533C157.542 112.943 157.875 113.453 158.6 113.453C159.082 113.453 159.426 113.036 159.426 112.358H160.177C160.177 113.453 159.527 114.131 158.581 114.131C157.367 114.131 156.735 113.388 156.735 111.579C156.735 109.826 157.348 109.028 158.572 109.028C159.638 109.028 160.176 109.687 160.176 111.319ZM157.542 111.124H159.379C159.379 110.197 159.101 109.705 158.571 109.705C157.894 109.705 157.606 110.188 157.542 111.124Z" fill="#373737"/>
<path d="M163.517 109.103V109.891H163.266C162.785 109.891 162.358 110.179 162.358 111.041V114.019H161.598V109.14H162.172L162.275 109.78H162.331C162.451 109.408 162.692 109.028 163.157 109.028C163.359 109.028 163.517 109.103 163.517 109.103Z" fill="#373737"/>
<path d="M167.84 108.221H167.08V107.312H167.84V108.221ZM167.84 114.019H167.08V109.139H167.84V114.019Z" fill="#373737"/>
<path d="M172.442 110.503V114.018H171.681V110.559C171.681 109.882 171.402 109.705 170.994 109.705C170.512 109.705 170.085 110.197 170.085 111.041V114.019H169.325V109.14H169.9L170.002 109.705H170.058C170.327 109.223 170.754 109.028 171.236 109.028C171.969 109.028 172.442 109.418 172.442 110.503Z" fill="#373737"/>
<path d="M175.782 114.019H174.956L173.556 109.14H174.391L175.383 112.85H175.42L176.412 109.14H177.183L175.782 114.019Z" fill="#373737"/>
<path d="M181.561 111.319V111.802H178.918C178.927 112.943 179.26 113.453 179.985 113.453C180.467 113.453 180.811 113.036 180.811 112.358H181.562C181.562 113.453 180.912 114.131 179.966 114.131C178.752 114.131 178.12 113.388 178.12 111.579C178.12 109.826 178.733 109.028 179.957 109.028C181.023 109.028 181.561 109.687 181.561 111.319ZM178.927 111.124H180.764C180.764 110.197 180.486 109.705 179.956 109.705C179.279 109.705 178.991 110.188 178.927 111.124Z" fill="#373737"/>
<path d="M184.901 109.103V109.891H184.65C184.168 109.891 183.741 110.179 183.741 111.041V114.019H182.981V109.14H183.556L183.658 109.78H183.714C183.834 109.408 184.076 109.028 184.54 109.028C184.743 109.028 184.901 109.103 184.901 109.103Z" fill="#373737"/>
<path d="M186.728 109.14H187.387V109.817H186.728V113.008C186.728 113.296 186.877 113.453 187.165 113.453H187.387V113.982C187.258 114.056 187.025 114.112 186.84 114.112C186.173 114.112 185.968 113.545 185.968 112.99V109.817H185.55V109.14H185.968L186.135 107.786H186.729V109.14H186.728Z" fill="#373737"/>
<path d="M191.339 110.364C191.339 110.429 191.33 110.522 191.33 110.54H190.542V110.457C190.542 110.076 190.385 109.697 189.864 109.697C189.327 109.697 189.206 110.095 189.206 110.364C189.206 111.431 191.432 110.809 191.432 112.627C191.432 113.676 190.773 114.13 189.874 114.13C188.752 114.13 188.306 113.425 188.306 112.701C188.306 112.572 188.315 112.516 188.315 112.497H189.114V112.589C189.114 113.202 189.466 113.461 189.911 113.461C190.309 113.461 190.644 113.212 190.644 112.738C190.644 111.514 188.418 112.172 188.418 110.42C188.418 109.557 189.012 109.027 189.94 109.027C190.848 109.028 191.339 109.641 191.339 110.364Z" fill="#373737"/>
<path d="M198.343 110.948H197.556C197.556 110.104 197.398 109.705 196.85 109.705C196.247 109.705 195.978 110.281 195.978 111.403V111.756C195.978 112.878 196.239 113.453 196.85 113.453C197.397 113.453 197.593 113.017 197.593 112.211H198.343C198.343 113.23 197.927 114.131 196.85 114.131C195.7 114.131 195.181 113.332 195.181 111.579C195.181 109.826 195.709 109.028 196.85 109.028C197.908 109.028 198.343 109.705 198.343 110.948Z" fill="#373737"/>
<path d="M202.657 110.392V113.128C202.657 113.36 202.788 113.453 202.918 113.453H203.214V113.982C203.131 114.029 202.955 114.093 202.713 114.093C202.315 114.093 202.036 113.852 201.943 113.49H201.897C201.647 113.889 201.22 114.13 200.71 114.13C200.228 114.13 199.429 113.935 199.429 112.757C199.429 111.412 200.478 111.124 201.897 111.124V110.493C201.897 110.029 201.748 109.705 201.127 109.705C200.552 109.705 200.375 110.104 200.375 110.475V110.586H199.624C199.615 110.53 199.615 110.466 199.615 110.383C199.615 109.492 200.265 109.028 201.183 109.028C202.166 109.028 202.657 109.529 202.657 110.392ZM201.897 111.802C200.904 111.802 200.227 111.95 200.227 112.711C200.227 113.267 200.459 113.452 200.885 113.452C201.368 113.452 201.897 113.054 201.897 112.247V111.802Z" fill="#373737"/>
<path d="M207.148 110.364C207.148 110.429 207.138 110.522 207.138 110.54H206.35V110.457C206.35 110.076 206.193 109.697 205.673 109.697C205.135 109.697 205.015 110.095 205.015 110.364C205.015 111.431 207.24 110.809 207.24 112.627C207.24 113.676 206.581 114.13 205.682 114.13C204.56 114.13 204.114 113.425 204.114 112.701C204.114 112.572 204.123 112.516 204.123 112.497H204.922V112.589C204.922 113.202 205.274 113.461 205.719 113.461C206.118 113.461 206.452 113.212 206.452 112.738C206.452 111.514 204.226 112.172 204.226 110.42C204.226 109.557 204.82 109.027 205.748 109.027C206.657 109.028 207.148 109.641 207.148 110.364Z" fill="#373737"/>
<path d="M209.393 109.65H209.449C209.699 109.213 210.061 109.028 210.544 109.028C211.276 109.028 211.75 109.418 211.75 110.503V114.018H210.988V110.559C210.988 109.881 210.71 109.704 210.302 109.704C209.82 109.704 209.393 110.197 209.393 111.04V114.019H208.633V107.312H209.393V109.65Z" fill="#373737"/>
<path d="M219.208 111.579C219.208 113.332 218.605 114.13 217.464 114.13C216.323 114.13 215.72 113.332 215.72 111.579C215.72 109.826 216.323 109.028 217.464 109.028C218.605 109.028 219.208 109.826 219.208 111.579ZM216.517 111.402V111.756C216.517 112.878 216.834 113.452 217.464 113.452C218.095 113.452 218.41 112.878 218.41 111.756V111.402C218.41 110.281 218.094 109.705 217.464 109.705C216.834 109.705 216.517 110.281 216.517 111.402Z" fill="#373737"/>
<path d="M223.717 110.503V114.018H222.955V110.559C222.955 109.882 222.677 109.705 222.269 109.705C221.787 109.705 221.36 110.197 221.36 111.041V114.019H220.6V109.14H221.174L221.277 109.705H221.332C221.601 109.223 222.028 109.028 222.51 109.028C223.243 109.028 223.717 109.418 223.717 110.503Z" fill="#373737"/>
<path d="M231.176 111.588C231.176 113.36 230.527 114.131 229.719 114.131C229.246 114.131 228.847 113.926 228.68 113.592H228.633V115.624H227.873V109.14H228.448L228.55 109.705H228.597C228.829 109.26 229.218 109.028 229.664 109.028C230.591 109.028 231.176 109.798 231.176 111.588ZM228.634 111.402V111.756C228.634 112.878 228.922 113.452 229.506 113.452C230.09 113.452 230.378 112.97 230.378 111.756V111.402C230.378 110.188 230.09 109.705 229.506 109.705C228.922 109.705 228.634 110.281 228.634 111.402Z" fill="#373737"/>
<path d="M234.487 109.103V109.891H234.236C233.755 109.891 233.328 110.179 233.328 111.041V114.019H232.568V109.14H233.142L233.244 109.78H233.3C233.42 109.408 233.662 109.028 234.126 109.028C234.329 109.028 234.487 109.103 234.487 109.103Z" fill="#373737"/>
<path d="M238.866 111.579C238.866 113.332 238.264 114.13 237.123 114.13C235.982 114.13 235.379 113.332 235.379 111.579C235.379 109.826 235.982 109.028 237.123 109.028C238.264 109.028 238.866 109.826 238.866 111.579ZM236.176 111.402V111.756C236.176 112.878 236.491 113.452 237.123 113.452C237.753 113.452 238.069 112.878 238.069 111.756V111.402C238.069 110.281 237.753 109.705 237.123 109.705C236.491 109.705 236.176 110.281 236.176 111.402Z" fill="#373737"/>
<path d="M243.56 111.588C243.56 113.36 242.911 114.131 242.104 114.131C241.631 114.131 241.232 113.926 241.065 113.592H241.018V115.624H240.258V109.14H240.833L240.935 109.705H240.982C241.214 109.26 241.603 109.028 242.049 109.028C242.976 109.028 243.56 109.798 243.56 111.588ZM241.018 111.402V111.756C241.018 112.878 241.306 113.452 241.89 113.452C242.474 113.452 242.762 112.97 242.762 111.756V111.402C242.762 110.188 242.474 109.705 241.89 109.705C241.306 109.705 241.018 110.281 241.018 111.402Z" fill="#373737"/>
<path d="M248.227 111.319V111.802H245.584C245.593 112.943 245.926 113.453 246.65 113.453C247.132 113.453 247.476 113.036 247.476 112.358H248.227C248.227 113.453 247.577 114.131 246.632 114.131C245.417 114.131 244.785 113.388 244.785 111.579C244.785 109.826 245.398 109.028 246.622 109.028C247.689 109.028 248.227 109.687 248.227 111.319ZM245.593 111.124H247.43C247.43 110.197 247.152 109.705 246.622 109.705C245.945 109.705 245.657 110.188 245.593 111.124Z" fill="#373737"/>
<path d="M251.567 109.103V109.891H251.315C250.834 109.891 250.407 110.179 250.407 111.041V114.019H249.647V109.14H250.221L250.323 109.78H250.379C250.499 109.408 250.741 109.028 251.205 109.028C251.409 109.028 251.567 109.103 251.567 109.103Z" fill="#373737"/>
<path d="M253.394 109.14H254.053V109.817H253.394V113.008C253.394 113.296 253.543 113.453 253.83 113.453H254.053V113.982C253.924 114.056 253.691 114.112 253.506 114.112C252.839 114.112 252.634 113.545 252.634 112.99V109.817H252.216V109.14H252.634L252.8 107.786H253.394V109.14Z" fill="#373737"/>
<path d="M257.142 113.768C256.854 114.835 256.419 115.707 255.565 115.707C255.352 115.707 255.176 115.688 255.018 115.633V115.104H255.287C255.695 115.104 256.075 114.854 256.251 114.019L254.759 109.14H255.594L256.669 112.924H256.706L257.615 109.14H258.386L257.142 113.768Z" fill="#373737"/>
<path d="M17.029 119.354H16.2689V118.446H17.029V119.354ZM17.029 125.152H16.2689V120.273H17.029V125.152Z" fill="#373737"/>
<path d="M21.631 121.636V125.152H20.8694V121.692C20.8694 121.015 20.5911 120.838 20.1828 120.838C19.701 120.838 19.274 121.33 19.274 122.174V125.152H18.5139V120.273H19.0885L19.1906 120.838H19.2466C19.5155 120.356 19.9424 120.161 20.4243 120.161C21.1574 120.161 21.631 120.551 21.631 121.636Z" fill="#373737"/>
<path d="M28.774 121.525V124.261C28.774 124.493 28.905 124.586 29.0346 124.586H29.331V125.115C29.2476 125.162 29.0719 125.226 28.8305 125.226C28.432 125.226 28.1533 124.986 28.0605 124.624H28.0139C27.7641 125.022 27.3372 125.264 26.8264 125.264C26.3445 125.264 25.5461 125.069 25.5461 123.891C25.5461 122.545 26.5942 122.257 28.0134 122.257V121.627C28.0134 121.162 27.8647 120.838 27.2435 120.838C26.6688 120.838 26.4917 121.238 26.4917 121.609V121.72H25.7409C25.7316 121.664 25.7316 121.6 25.7316 121.516C25.7316 120.625 26.3813 120.161 27.2994 120.161C28.2828 120.161 28.774 120.662 28.774 121.525ZM28.0139 122.935C27.0217 122.935 26.3445 123.083 26.3445 123.844C26.3445 124.4 26.5766 124.585 27.0025 124.585C27.4854 124.585 28.0139 124.187 28.0139 123.38V122.935Z" fill="#373737"/>
<path d="M33.7375 124.586L33.6354 125.152H33.0608V118.445H33.8209V120.736H33.8675C34.0344 120.375 34.4338 120.161 34.9064 120.161C35.7141 120.161 36.3628 120.931 36.3628 122.703C36.3628 124.493 35.7784 125.263 34.8519 125.263C34.4058 125.263 34.0167 125.031 33.7851 124.585H33.7375V124.586ZM35.5649 122.536C35.5649 121.321 35.2769 120.838 34.6929 120.838C34.1085 120.838 33.8209 121.423 33.8209 122.573V122.889C33.8209 124.012 34.109 124.586 34.6929 124.586C35.2769 124.586 35.5649 124.104 35.5649 122.889V122.536Z" fill="#373737"/>
<path d="M40.872 125.152H40.2964L40.1943 124.586H40.1393C39.8694 125.068 39.4435 125.264 38.9606 125.264C38.228 125.264 37.7554 124.874 37.7554 123.789V120.273H38.5155V123.733C38.5155 124.41 38.7938 124.586 39.2021 124.586C39.6849 124.586 40.1109 124.094 40.1109 123.251V120.273H40.8725V125.152H40.872Z" fill="#373737"/>
<path d="M45.2321 121.497C45.2321 121.562 45.2228 121.655 45.2228 121.673H44.4342V121.59C44.4342 121.209 44.2772 120.829 43.7575 120.829C43.2197 120.829 43.0994 121.228 43.0994 121.497C43.0994 122.564 45.3253 121.942 45.3253 123.76C45.3253 124.809 44.6663 125.263 43.7668 125.263C42.645 125.263 42.199 124.557 42.199 123.834C42.199 123.705 42.2083 123.649 42.2083 123.63H43.0067V123.722C43.0067 124.335 43.359 124.594 43.8041 124.594C44.2026 124.594 44.5368 124.344 44.5368 123.871C44.5368 122.647 42.3109 123.305 42.3109 121.552C42.3109 120.69 42.9046 120.16 43.8326 120.16C44.7409 120.161 45.2321 120.774 45.2321 121.497Z" fill="#373737"/>
<path d="M47.3844 119.354H46.6243V118.446H47.3844V119.354ZM47.3844 125.152H46.6243V120.273H47.3844V125.152Z" fill="#373737"/>
<path d="M51.9864 121.636V125.152H51.2248V121.692C51.2248 121.015 50.9465 120.838 50.5383 120.838C50.0564 120.838 49.6295 121.33 49.6295 122.174V125.152H48.8693V120.273H49.444L49.546 120.838H49.602C49.8709 120.356 50.2978 120.161 50.7797 120.161C51.5128 120.161 51.9864 120.551 51.9864 121.636Z" fill="#373737"/>
<path d="M56.8376 122.453V122.935H54.1942C54.2035 124.076 54.5367 124.586 55.2615 124.586C55.7433 124.586 56.0869 124.169 56.0869 123.491H56.8376C56.8376 124.586 56.1879 125.264 55.2423 125.264C54.0278 125.264 53.3958 124.521 53.3958 122.712C53.3958 120.96 54.0082 120.161 55.2325 120.161C56.3003 120.161 56.8376 120.82 56.8376 122.453ZM54.204 122.257H56.0407C56.0407 121.33 55.7625 120.838 55.233 120.838C54.5558 120.838 54.2682 121.321 54.204 122.257Z" fill="#373737"/>
<path d="M61.0411 121.497C61.0411 121.562 61.0318 121.655 61.0318 121.673H60.2432V121.59C60.2432 121.209 60.0862 120.829 59.566 120.829C59.0282 120.829 58.908 121.228 58.908 121.497C58.908 122.564 61.1339 121.942 61.1339 123.76C61.1339 124.809 60.4748 125.263 59.5754 125.263C58.4536 125.263 58.0075 124.557 58.0075 123.834C58.0075 123.705 58.0168 123.649 58.0168 123.63H58.8152V123.722C58.8152 124.335 59.1676 124.594 59.6126 124.594C60.0111 124.594 60.3453 124.344 60.3453 123.871C60.3453 122.647 58.1194 123.305 58.1194 121.552C58.1194 120.69 58.7132 120.16 59.6411 120.16C60.5494 120.161 61.0411 120.774 61.0411 121.497Z" fill="#373737"/>
<path d="M65.3082 121.497C65.3082 121.562 65.2989 121.655 65.2989 121.673H64.5103V121.59C64.5103 121.209 64.3533 120.829 63.8336 120.829C63.2958 120.829 63.1755 121.228 63.1755 121.497C63.1755 122.564 65.4014 121.942 65.4014 123.76C65.4014 124.809 64.7424 125.263 63.8429 125.263C62.7212 125.263 62.2751 124.557 62.2751 123.834C62.2751 123.705 62.2844 123.649 62.2844 123.63H63.0828V123.722C63.0828 124.335 63.4352 124.594 63.8797 124.594C64.2782 124.594 64.6124 124.344 64.6124 123.871C64.6124 122.647 62.3865 123.305 62.3865 121.552C62.3865 120.69 62.9802 120.16 63.9082 120.16C64.817 120.161 65.3082 120.774 65.3082 121.497Z" fill="#373737"/>
<path d="M67.7579 125.152H66.83V124.15H67.7579V125.152Z" fill="#373737"/>
<path d="M72.8595 125.152H72.0434V118.788H72.8595V125.152Z" fill="#373737"/>
<path d="M77.6469 121.636V125.152H76.8858V121.692C76.8858 121.015 76.6071 120.838 76.1993 120.838C75.7174 120.838 75.2905 121.33 75.2905 122.174V125.152H74.5303V120.273H75.105L75.2075 120.838H75.2635C75.5324 120.356 75.9593 120.161 76.4412 120.161C77.1733 120.161 77.6469 120.551 77.6469 121.636Z" fill="#373737"/>
<path d="M82.164 122.082H81.3764C81.3764 121.238 81.2183 120.838 80.6707 120.838C80.0676 120.838 79.7987 121.414 79.7987 122.536V122.889C79.7987 124.012 80.0593 124.586 80.6707 124.586C81.2179 124.586 81.4132 124.151 81.4132 123.344H82.164C82.164 124.364 81.7473 125.264 80.6707 125.264C79.5205 125.264 79.0013 124.466 79.0013 122.713C79.0013 120.96 79.5298 120.162 80.6707 120.162C81.7287 120.161 82.164 120.838 82.164 122.082Z" fill="#373737"/>
<path d="M86.7934 122.712C86.7934 124.466 86.1913 125.264 85.0504 125.264C83.9095 125.264 83.3064 124.465 83.3064 122.712C83.3064 120.96 83.9095 120.161 85.0504 120.161C86.1913 120.161 86.7934 120.959 86.7934 122.712ZM84.1033 122.536V122.889C84.1033 124.012 84.4189 124.586 85.0504 124.586C85.681 124.586 85.9965 124.012 85.9965 122.889V122.536C85.9965 121.414 85.681 120.838 85.0504 120.838C84.4189 120.838 84.1033 121.414 84.1033 122.536Z" fill="#373737"/>
<path d="M93.4082 121.636V125.152H92.6481V121.692C92.6481 121.015 92.3792 120.838 92.0175 120.838C91.5631 120.838 91.1823 121.33 91.1823 122.174V125.152H90.4222V121.692C90.4222 121.015 90.1533 120.838 89.7916 120.838C89.3372 120.838 88.9471 121.33 88.9471 122.174V125.152H88.187V120.273H88.7616L88.8636 120.838H88.9196C89.1787 120.356 89.5693 120.161 90.032 120.161C90.5149 120.161 90.8957 120.365 91.0719 120.866C91.3315 120.402 91.7952 120.161 92.2594 120.161C92.9449 120.161 93.4082 120.551 93.4082 121.636Z" fill="#373737"/>
<path d="M98.2611 122.453V122.935H95.6176C95.6269 124.076 95.9601 124.586 96.6849 124.586C97.1668 124.586 97.5103 124.169 97.5103 123.491H98.2611C98.2611 124.586 97.6114 125.264 96.6658 125.264C95.4513 125.264 94.8197 124.521 94.8197 122.712C94.8197 120.96 95.4321 120.161 96.6565 120.161C97.7233 120.161 98.2611 120.82 98.2611 122.453ZM95.6269 122.257H97.4637C97.4637 121.33 97.1855 120.838 96.656 120.838C95.9788 120.838 95.6912 121.321 95.6269 122.257Z" fill="#373737"/>
<path d="M102.927 119.354H102.167V118.446H102.927V119.354ZM102.927 125.152H102.167V120.273H102.927V125.152Z" fill="#373737"/>
<path d="M107.194 121.497C107.194 121.562 107.185 121.655 107.185 121.673H106.396V121.59C106.396 121.209 106.239 120.829 105.72 120.829C105.182 120.829 105.062 121.228 105.062 121.497C105.062 122.564 107.288 121.942 107.288 123.76C107.288 124.809 106.629 125.263 105.729 125.263C104.607 125.263 104.161 124.557 104.161 123.834C104.161 123.705 104.171 123.649 104.171 123.63H104.969V123.722C104.969 124.335 105.321 124.594 105.766 124.594C106.164 124.594 106.499 124.344 106.499 123.871C106.499 122.647 104.273 123.305 104.273 121.552C104.273 120.69 104.867 120.16 105.795 120.16C106.703 120.161 107.194 120.774 107.194 121.497Z" fill="#373737"/>
<path d="M112.019 120.783H112.075C112.324 120.346 112.688 120.161 113.169 120.161C113.902 120.161 114.375 120.551 114.375 121.636V125.151H113.614V121.692C113.614 121.015 113.335 120.838 112.927 120.838C112.445 120.838 112.018 121.33 112.018 122.174V125.151H111.258V118.445H112.018V120.783H112.019Z" fill="#373737"/>
<path d="M116.62 119.354H115.86V118.446H116.62V119.354ZM116.62 125.152H115.86V120.273H116.62V125.152Z" fill="#373737"/>
<path d="M121.592 119.484C121.592 120.068 121.287 120.522 120.776 120.654C121.045 120.931 121.213 121.321 121.213 121.803C121.213 122.814 120.6 123.436 119.654 123.445H119.144C118.894 123.445 118.699 123.64 118.699 123.881C118.699 124.123 118.903 124.317 119.144 124.317H120.536C121.24 124.317 121.685 124.836 121.685 125.458C121.685 126.228 121.184 126.84 120.257 126.84H118.875C118.076 126.84 117.668 126.32 117.668 125.68C117.668 125.207 117.91 124.79 118.3 124.641C118.049 124.484 117.901 124.196 117.901 123.908C117.901 123.509 118.179 123.212 118.587 123.064C118.235 122.776 118.022 122.349 118.022 121.802C118.022 120.783 118.624 120.16 119.617 120.16C119.867 120.16 120.118 120.226 120.321 120.336C120.758 120.106 120.878 119.789 120.924 119.484L121.592 119.484ZM118.995 125.04C118.606 125.04 118.43 125.291 118.43 125.606C118.43 125.921 118.615 126.181 118.995 126.181H120.34C120.665 126.181 120.915 125.921 120.915 125.606C120.915 125.291 120.73 125.04 120.34 125.04H118.995ZM118.782 121.803C118.782 122.452 119.07 122.814 119.608 122.814C120.146 122.814 120.443 122.425 120.443 121.803C120.443 121.155 120.146 120.791 119.608 120.791C119.07 120.792 118.782 121.182 118.782 121.803Z" fill="#373737"/>
<path d="M123.56 120.783H123.616C123.865 120.346 124.228 120.161 124.71 120.161C125.443 120.161 125.917 120.551 125.917 121.636V125.151H125.155V121.692C125.155 121.015 124.877 120.838 124.468 120.838C123.987 120.838 123.56 121.33 123.56 122.174V125.151H122.799V118.445H123.56V120.783Z" fill="#373737"/>
<path d="M130.768 122.453V122.935H128.125C128.134 124.076 128.467 124.586 129.192 124.586C129.674 124.586 130.017 124.169 130.017 123.491H130.768C130.768 124.586 130.118 125.264 129.173 125.264C127.958 125.264 127.326 124.521 127.326 122.712C127.326 120.96 127.939 120.161 129.163 120.161C130.23 120.161 130.768 120.82 130.768 122.453ZM128.134 122.257H129.971C129.971 121.33 129.692 120.838 129.163 120.838C128.486 120.838 128.198 121.321 128.134 122.257Z" fill="#373737"/>
<path d="M134.108 120.236V121.023H133.857C133.375 121.023 132.948 121.311 132.948 122.174V125.151H132.188V120.272H132.763L132.865 120.912H132.921C133.041 120.541 133.283 120.16 133.746 120.16C133.949 120.161 134.108 120.236 134.108 120.236Z" fill="#373737"/>
<path d="M138.514 120.273H139.173V120.95H138.514V124.141C138.514 124.429 138.663 124.586 138.951 124.586H139.173V125.115C139.044 125.189 138.812 125.245 138.626 125.245C137.959 125.245 137.754 124.679 137.754 124.123V120.95H137.337V120.274H137.754L137.921 118.92H138.515V120.273H138.514Z" fill="#373737"/>
<path d="M141.103 120.783H141.159C141.409 120.346 141.772 120.161 142.253 120.161C142.987 120.161 143.46 120.551 143.46 121.636V125.151H142.698V121.692C142.698 121.015 142.42 120.838 142.012 120.838C141.53 120.838 141.103 121.33 141.103 122.174V125.151H140.343V118.445H141.103V120.783Z" fill="#373737"/>
<path d="M148.024 121.525V124.261C148.024 124.493 148.154 124.586 148.284 124.586H148.581V125.115C148.497 125.162 148.321 125.226 148.08 125.226C147.681 125.226 147.402 124.986 147.31 124.624H147.264C147.014 125.022 146.586 125.264 146.076 125.264C145.594 125.264 144.796 125.069 144.796 123.891C144.796 122.545 145.844 122.257 147.263 122.257V121.627C147.263 121.162 147.114 120.838 146.493 120.838C145.918 120.838 145.741 121.238 145.741 121.609V121.72H144.991C144.981 121.664 144.981 121.6 144.981 121.516C144.981 120.625 145.631 120.161 146.549 120.161C147.532 120.161 148.024 120.662 148.024 121.525ZM147.263 122.935C146.271 122.935 145.594 123.083 145.594 123.844C145.594 124.4 145.826 124.585 146.252 124.585C146.735 124.585 147.263 124.187 147.263 123.38V122.935Z" fill="#373737"/>
<path d="M152.848 121.636V125.152H152.086V121.692C152.086 121.015 151.808 120.838 151.4 120.838C150.918 120.838 150.491 121.33 150.491 122.174V125.152H149.731V120.273H150.306L150.408 120.838H150.464C150.733 120.356 151.159 120.161 151.641 120.161C152.374 120.161 152.848 120.551 152.848 121.636Z" fill="#373737"/>
<path d="M160.307 122.712C160.307 124.466 159.704 125.264 158.563 125.264C157.422 125.264 156.819 124.465 156.819 122.712C156.819 120.96 157.422 120.161 158.563 120.161C159.704 120.161 160.307 120.959 160.307 122.712ZM157.616 122.536V122.889C157.616 124.012 157.932 124.586 158.563 124.586C159.194 124.586 159.509 124.012 159.509 122.889V122.536C159.509 121.414 159.194 120.838 158.563 120.838C157.932 120.838 157.616 121.414 157.616 122.536Z" fill="#373737"/>
<path d="M164.816 125.152H164.24L164.138 124.586H164.083C163.814 125.068 163.388 125.264 162.905 125.264C162.172 125.264 161.699 124.874 161.699 123.789V120.273H162.46V123.733C162.46 124.41 162.738 124.586 163.146 124.586C163.629 124.586 164.055 124.094 164.055 123.251V120.273H164.816V125.152Z" fill="#373737"/>
<path d="M167.145 120.273H167.804V120.95H167.145V124.141C167.145 124.429 167.293 124.586 167.581 124.586H167.804V125.115C167.674 125.189 167.442 125.245 167.256 125.245C166.589 125.245 166.384 124.679 166.384 124.123V120.95H165.967V120.274H166.384L166.551 118.92H167.145L167.145 120.273Z" fill="#373737"/>
<path d="M171.912 122.082H171.124C171.124 121.238 170.966 120.838 170.419 120.838C169.815 120.838 169.547 121.414 169.547 122.536V122.889C169.547 124.012 169.807 124.586 170.419 124.586C170.966 124.586 171.161 124.151 171.161 123.344H171.912C171.912 124.364 171.495 125.264 170.419 125.264C169.268 125.264 168.749 124.466 168.749 122.713C168.749 120.96 169.278 120.162 170.419 120.162C171.476 120.161 171.912 120.838 171.912 122.082Z" fill="#373737"/>
<path d="M176.542 122.712C176.542 124.466 175.939 125.264 174.798 125.264C173.657 125.264 173.054 124.465 173.054 122.712C173.054 120.96 173.657 120.161 174.798 120.161C175.939 120.161 176.542 120.959 176.542 122.712ZM173.851 122.536V122.889C173.851 124.012 174.167 124.586 174.798 124.586C175.428 124.586 175.744 124.012 175.744 122.889V122.536C175.744 121.414 175.428 120.838 174.798 120.838C174.167 120.838 173.851 121.414 173.851 122.536Z" fill="#373737"/>
<path d="M183.156 121.636V125.152H182.396V121.692C182.396 121.015 182.127 120.838 181.765 120.838C181.311 120.838 180.93 121.33 180.93 122.174V125.152H180.17V121.692C180.17 121.015 179.901 120.838 179.539 120.838C179.085 120.838 178.695 121.33 178.695 122.174V125.152H177.934V120.273H178.509L178.611 120.838H178.667C178.927 120.356 179.317 120.161 179.78 120.161C180.262 120.161 180.642 120.365 180.819 120.866C181.079 120.402 181.543 120.161 182.006 120.161C182.692 120.161 183.156 120.551 183.156 121.636Z" fill="#373737"/>
<path d="M188.008 122.453V122.935H185.365C185.374 124.076 185.707 124.586 186.432 124.586C186.914 124.586 187.258 124.169 187.258 123.491H188.009C188.009 124.586 187.359 125.264 186.414 125.264C185.199 125.264 184.568 124.521 184.568 122.712C184.568 120.96 185.18 120.161 186.404 120.161C187.471 120.161 188.008 120.82 188.008 122.453ZM185.374 122.257H187.211C187.211 121.33 186.933 120.838 186.403 120.838C185.727 120.838 185.439 121.321 185.374 122.257Z" fill="#373737"/>
<path d="M194.947 122.082H194.16C194.16 121.238 194.002 120.838 193.454 120.838C192.851 120.838 192.582 121.414 192.582 122.536V122.889C192.582 124.012 192.843 124.586 193.454 124.586C194.001 124.586 194.197 124.151 194.197 123.344H194.947C194.947 124.364 194.531 125.264 193.454 125.264C192.304 125.264 191.785 124.466 191.785 122.713C191.785 120.96 192.313 120.162 193.454 120.162C194.512 120.161 194.947 120.838 194.947 122.082Z" fill="#373737"/>
<path d="M199.262 121.525V124.261C199.262 124.493 199.392 124.586 199.522 124.586H199.818V125.115C199.735 125.162 199.559 125.226 199.317 125.226C198.919 125.226 198.64 124.986 198.547 124.624H198.501C198.251 125.022 197.824 125.264 197.313 125.264C196.831 125.264 196.033 125.069 196.033 123.891C196.033 122.545 197.081 122.257 198.5 122.257V121.627C198.5 121.162 198.352 120.838 197.73 120.838C197.156 120.838 196.979 121.238 196.979 121.609V121.72H196.228C196.219 121.664 196.219 121.6 196.219 121.516C196.219 120.625 196.868 120.161 197.786 120.161C198.77 120.161 199.262 120.662 199.262 121.525ZM198.501 122.935C197.509 122.935 196.832 123.083 196.832 123.844C196.832 124.4 197.064 124.585 197.49 124.585C197.973 124.585 198.501 124.187 198.501 123.38V122.935Z" fill="#373737"/>
<path d="M201.637 125.152H200.877V118.445H201.637V125.152Z" fill="#373737"/>
<path d="M203.789 125.152H203.029V118.445H203.789V125.152Z" fill="#373737"/>
<path d="M208.548 122.453V122.935H205.905C205.914 124.076 206.247 124.586 206.972 124.586C207.454 124.586 207.798 124.169 207.798 123.491H208.548C208.548 124.586 207.899 125.264 206.953 125.264C205.739 125.264 205.107 124.521 205.107 122.712C205.107 120.96 205.719 120.161 206.943 120.161C208.011 120.161 208.548 120.82 208.548 122.453ZM205.914 122.257H207.751C207.751 121.33 207.473 120.838 206.943 120.838C206.267 120.838 205.979 121.321 205.914 122.257Z" fill="#373737"/>
<path d="M213.086 125.152H212.51L212.408 124.585H212.361C212.129 125.031 211.74 125.264 211.296 125.264C210.368 125.264 209.784 124.493 209.784 122.704C209.784 120.931 210.433 120.161 211.24 120.161C211.713 120.161 212.112 120.375 212.279 120.737H212.325V118.446H213.086V125.152H213.086ZM210.58 122.536V122.889C210.58 124.104 210.868 124.586 211.452 124.586C212.038 124.586 212.324 124.011 212.324 122.889V122.572C212.324 121.423 212.038 120.838 211.452 120.838C210.868 120.838 210.58 121.321 210.58 122.536Z" fill="#373737"/>
<path d="M217.445 119.939H217.816V120.94H216.889V120.021L217.334 118.788H217.816L217.445 119.939ZM218.624 119.939H218.994V120.94H218.067V120.021L218.512 118.788H218.994L218.624 119.939Z" fill="#373737"/>
<path d="M221.147 122.527V125.152H220.331V118.788H222.603C223.856 118.788 224.504 119.54 224.504 120.644C224.504 121.766 223.781 122.527 222.603 122.527H221.147ZM221.147 119.531V121.785H222.576C223.225 121.785 223.651 121.331 223.651 120.644C223.651 119.958 223.271 119.531 222.576 119.531H221.147Z" fill="#373737"/>
<path d="M227.697 120.236V121.023H227.446C226.964 121.023 226.537 121.311 226.537 122.174V125.151H225.777V120.272H226.351L226.454 120.912H226.51C226.63 120.541 226.872 120.16 227.336 120.16C227.539 120.161 227.697 120.236 227.697 120.236Z" fill="#373737"/>
<path d="M232.075 122.712C232.075 124.466 231.473 125.264 230.332 125.264C229.191 125.264 228.588 124.465 228.588 122.712C228.588 120.96 229.191 120.161 230.332 120.161C231.473 120.161 232.075 120.959 232.075 122.712ZM229.385 122.536V122.889C229.385 124.012 229.7 124.586 230.332 124.586C230.962 124.586 231.277 124.012 231.277 122.889V122.536C231.277 121.414 230.962 120.838 230.332 120.838C229.7 120.838 229.385 121.414 229.385 122.536Z" fill="#373737"/>
<path d="M235.026 118.482V119.011H234.618C234.33 119.011 234.181 119.169 234.181 119.457V120.273H235.026V120.95H234.181V125.152H233.421V120.95H232.994V120.273H233.421V119.494C233.421 118.937 233.644 118.371 234.386 118.371C234.609 118.371 234.868 118.427 235.026 118.482Z" fill="#373737"/>
<path d="M236.714 119.354H235.954V118.446H236.714V119.354ZM236.714 125.152H235.954V120.273H236.714V125.152Z" fill="#373737"/>
<path d="M238.95 120.273H239.609V120.95H238.95V124.141C238.95 124.429 239.098 124.586 239.386 124.586H239.609V125.115C239.479 125.189 239.247 125.245 239.062 125.245C238.394 125.245 238.189 124.679 238.189 124.123V120.95H237.772V120.274H238.189L238.356 118.92H238.95V120.273Z" fill="#373737"/>
<path d="M241.372 119.706L240.927 120.94H240.444L240.815 119.79H240.444V118.788H241.372V119.706ZM242.55 119.706L242.105 120.94H241.622L241.993 119.79H241.622V118.788H242.55V119.706Z" fill="#373737"/>
<path d="M244.739 125.068L244.293 126.302H243.811L244.182 125.152H243.811V124.15H244.739V125.068Z" fill="#373737"/>
<path d="M21.2683 133.102C21.2683 135.309 20.3227 136.395 18.7641 136.395C17.2056 136.395 16.2595 135.31 16.2595 133.102C16.2595 130.894 17.2051 129.809 18.7641 129.809C20.3222 129.809 21.2683 130.895 21.2683 133.102ZM17.1124 132.87V133.334C17.1124 134.883 17.7439 135.643 18.7637 135.643C19.7843 135.643 20.4149 134.883 20.4149 133.334V132.87C20.4149 131.321 19.7843 130.56 18.7637 130.56C17.7439 130.56 17.1124 131.321 17.1124 132.87Z" fill="#373737"/>
<path d="M25.8615 136.284H25.2859L25.1839 135.717H25.1289C24.86 136.2 24.4331 136.396 23.9502 136.396C23.2176 136.396 22.745 136.006 22.745 134.921V131.405H23.5051V134.865C23.5051 135.542 23.7834 135.718 24.1916 135.718C24.6745 135.718 25.1004 135.227 25.1004 134.383V131.405H25.8615V136.284Z" fill="#373737"/>
<path d="M28.19 131.405H28.8491V132.082H28.19V135.273C28.19 135.562 28.3387 135.719 28.6268 135.719H28.8491V136.248C28.7195 136.322 28.4874 136.378 28.3019 136.378C27.6346 136.378 27.4299 135.811 27.4299 135.256V132.083H27.0123V131.406H27.4299L27.5968 130.051H28.1905V131.405H28.19Z" fill="#373737"/>
<path d="M32.9583 133.213H32.1707C32.1707 132.37 32.0127 131.97 31.4651 131.97C30.862 131.97 30.5931 132.546 30.5931 133.668V134.022C30.5931 135.143 30.8536 135.718 31.4651 135.718C32.0122 135.718 32.2075 135.283 32.2075 134.476H32.9583C32.9583 135.496 32.5417 136.397 31.4651 136.397C30.3148 136.397 29.7957 135.598 29.7957 133.845C29.7957 132.093 30.3242 131.294 31.4651 131.294C32.5226 131.293 32.9583 131.97 32.9583 133.213Z" fill="#373737"/>
<path d="M37.5873 133.844C37.5873 135.598 36.9852 136.396 35.8443 136.396C34.7034 136.396 34.1003 135.597 34.1003 133.844C34.1003 132.092 34.7034 131.293 35.8443 131.293C36.9852 131.293 37.5873 132.092 37.5873 133.844ZM34.8972 133.668V134.021C34.8972 135.143 35.2127 135.718 35.8443 135.718C36.4749 135.718 36.7899 135.143 36.7899 134.021V133.668C36.7899 132.546 36.4744 131.97 35.8443 131.97C35.2127 131.97 34.8972 132.546 34.8972 133.668Z" fill="#373737"/>
<path d="M44.2012 132.768V136.284H43.4411V132.824C43.4411 132.147 43.1722 131.97 42.8105 131.97C42.3561 131.97 41.9753 132.462 41.9753 133.306V136.284H41.2152V132.824C41.2152 132.147 40.9463 131.97 40.5846 131.97C40.1302 131.97 39.7401 132.462 39.7401 133.306V136.284H38.98V131.405H39.5546L39.6567 131.97H39.7126C39.9722 131.488 40.3623 131.293 40.8251 131.293C41.3079 131.293 41.6878 131.497 41.8649 131.998C42.1245 131.535 42.5882 131.293 43.052 131.293C43.738 131.293 44.2012 131.683 44.2012 132.768Z" fill="#373737"/>
<path d="M49.0536 133.584V134.067H46.4102C46.4195 135.208 46.7527 135.718 47.4775 135.718C47.9593 135.718 48.3033 135.301 48.3033 134.623H49.0541C49.0541 135.718 48.4044 136.395 47.4588 136.395C46.2443 136.395 45.6122 135.653 45.6122 133.843C45.6122 132.091 46.2247 131.293 47.449 131.293C48.5158 131.293 49.0536 131.952 49.0536 133.584ZM46.4195 133.39H48.2562C48.2562 132.463 47.978 131.97 47.4485 131.97C46.7718 131.97 46.4838 132.453 46.4195 133.39Z" fill="#373737"/>
<path d="M53.7205 130.486H52.9604V129.578H53.7205V130.486ZM53.7205 136.284H52.9604V131.405H53.7205V136.284Z" fill="#373737"/>
<path d="M57.9882 132.629C57.9882 132.694 57.9789 132.787 57.9789 132.805H57.1903V132.722C57.1903 132.341 57.0333 131.962 56.5136 131.962C55.9758 131.962 55.8555 132.36 55.8555 132.629C55.8555 133.696 58.0814 133.074 58.0814 134.892C58.0814 135.941 57.4224 136.395 56.5229 136.395C55.4011 136.395 54.9551 135.69 54.9551 134.966C54.9551 134.837 54.9644 134.781 54.9644 134.762H55.7628V134.854C55.7628 135.467 56.1151 135.726 56.5597 135.726C56.9582 135.726 57.2924 135.477 57.2924 135.003C57.2924 133.779 55.0665 134.437 55.0665 132.684C55.0665 131.822 55.6602 131.292 56.5882 131.292C57.497 131.293 57.9882 131.906 57.9882 132.629Z" fill="#373737"/>
<path d="M62.8125 131.915H62.8685C63.1183 131.479 63.4814 131.293 63.9628 131.293C64.6954 131.293 65.169 131.683 65.169 132.768V136.284H64.4079V132.824C64.4079 132.147 64.1296 131.97 63.7213 131.97C63.2395 131.97 62.8125 132.462 62.8125 133.306V136.284H62.0524V129.577H62.8125V131.915Z" fill="#373737"/>
<path d="M67.4141 130.486H66.654V129.578H67.4141V130.486ZM67.4141 136.284H66.654V131.405H67.4141V136.284Z" fill="#373737"/>
<path d="M72.3858 130.617C72.3858 131.201 72.0801 131.655 71.5698 131.786C71.8387 132.063 72.0065 132.453 72.0065 132.935C72.0065 133.947 71.3936 134.569 70.448 134.577H69.9376C69.6879 134.577 69.4925 134.773 69.4925 135.014C69.4925 135.255 69.6962 135.449 69.9376 135.449H71.3293C72.034 135.449 72.4786 135.969 72.4786 136.59C72.4786 137.36 71.9775 137.973 71.0506 137.973H69.6682C68.8698 137.973 68.462 137.452 68.462 136.813C68.462 136.34 68.7035 135.922 69.0936 135.774C68.8428 135.617 68.6941 135.329 68.6941 135.041C68.6941 134.643 68.9724 134.345 69.3807 134.197C69.0283 133.909 68.8154 133.482 68.8154 132.935C68.8154 131.916 69.4175 131.293 70.4107 131.293C70.6605 131.293 70.9117 131.359 71.1149 131.47C71.5516 131.237 71.6713 130.922 71.718 130.617H72.3858ZM69.7889 136.173C69.3998 136.173 69.2236 136.423 69.2236 136.739C69.2236 137.054 69.4091 137.314 69.7889 137.314H71.1345C71.4593 137.314 71.7091 137.054 71.7091 136.739C71.7091 136.423 71.5236 136.173 71.1345 136.173H69.7889ZM69.5755 132.935C69.5755 133.585 69.8635 133.947 70.4013 133.947C70.9392 133.947 71.2365 133.558 71.2365 132.935C71.2365 132.287 70.9392 131.924 70.4013 131.924C69.8635 131.924 69.5755 132.314 69.5755 132.935Z" fill="#373737"/>
<path d="M74.3537 131.915H74.4097C74.6595 131.479 75.0226 131.293 75.5045 131.293C76.2371 131.293 76.7107 131.683 76.7107 132.768V136.284H75.9496V132.824C75.9496 132.147 75.6713 131.97 75.263 131.97C74.7812 131.97 74.3542 132.462 74.3542 133.306V136.284H73.5941V129.577H74.3542V131.915H74.3537Z" fill="#373737"/>
<path d="M81.5609 133.584V134.067H78.9174C78.9267 135.208 79.2599 135.718 79.9847 135.718C80.4666 135.718 80.8101 135.301 80.8101 134.623H81.5609C81.5609 135.718 80.9112 136.395 79.9656 136.395C78.7511 136.395 78.119 135.653 78.119 133.843C78.119 132.091 78.7319 131.293 79.9558 131.293C81.0231 131.293 81.5609 131.952 81.5609 133.584ZM78.9272 133.39H80.764C80.764 132.463 80.4853 131.97 79.9563 131.97C79.2791 131.97 78.991 132.453 78.9272 133.39Z" fill="#373737"/>
<path d="M84.9018 131.368V132.155H84.651C84.1691 132.155 83.7422 132.443 83.7422 133.306V136.284H82.9821V131.405H83.5567L83.6588 132.044H83.7147C83.8349 131.673 84.0764 131.293 84.5401 131.293C84.7437 131.293 84.9018 131.368 84.9018 131.368Z" fill="#373737"/>
<path d="M89.3083 131.405H89.9674V132.082H89.3083V135.273C89.3083 135.562 89.457 135.719 89.7451 135.719H89.9674V136.248C89.8378 136.322 89.6057 136.378 89.4202 136.378C88.7529 136.378 88.5482 135.811 88.5482 135.256V132.083H88.1306V131.406H88.5482L88.7151 130.051H89.3088L89.3083 131.405Z" fill="#373737"/>
<path d="M91.897 131.915H91.9529C92.2027 131.479 92.5653 131.293 93.0472 131.293C93.7799 131.293 94.2534 131.683 94.2534 132.768V136.284H93.4918V132.824C93.4918 132.147 93.2136 131.97 92.8053 131.97C92.3234 131.97 91.8965 132.462 91.8965 133.306V136.284H91.1364V129.577H91.8965V131.915H91.897Z" fill="#373737"/>
<path d="M98.8164 132.656V135.394C98.8164 135.624 98.9475 135.718 99.077 135.718H99.3734V136.247C99.29 136.294 99.1143 136.357 98.8729 136.357C98.4744 136.357 98.1957 136.117 98.1029 135.755H98.0563C97.8066 136.154 97.3791 136.395 96.8688 136.395C96.3869 136.395 95.5885 136.2 95.5885 135.022C95.5885 133.677 96.6367 133.389 98.0558 133.389V132.758C98.0558 132.294 97.9071 131.969 97.2859 131.969C96.7113 131.969 96.5341 132.369 96.5341 132.74V132.851H95.7833C95.774 132.795 95.774 132.731 95.774 132.648C95.774 131.756 96.4237 131.293 97.3418 131.293C98.3252 131.293 98.8164 131.794 98.8164 132.656ZM98.0563 134.067C97.0641 134.067 96.3869 134.215 96.3869 134.976C96.3869 135.532 96.619 135.718 97.045 135.718C97.5278 135.718 98.0563 135.319 98.0563 134.512V134.067Z" fill="#373737"/>
<path d="M103.642 132.768V136.284H102.881V132.824C102.881 132.147 102.602 131.97 102.194 131.97C101.712 131.97 101.285 132.462 101.285 133.306V136.284H100.525V131.405H101.1L101.202 131.97H101.258C101.527 131.488 101.954 131.293 102.435 131.293C103.168 131.293 103.642 131.683 103.642 132.768Z" fill="#373737"/>
<path d="M108.466 130.486H107.706V129.578H108.466V130.486ZM108.466 136.284H107.706V131.405H108.466V136.284Z" fill="#373737"/>
<path d="M113.067 132.768V136.284H112.306V132.824C112.306 132.147 112.028 131.97 111.62 131.97C111.138 131.97 110.711 132.462 110.711 133.306V136.284H109.951V131.405H110.526L110.628 131.97H110.684C110.952 131.488 111.379 131.293 111.861 131.293C112.594 131.293 113.067 131.683 113.067 132.768Z" fill="#373737"/>
<path d="M117.585 133.213H116.797C116.797 132.37 116.639 131.97 116.092 131.97C115.489 131.97 115.22 132.546 115.22 133.668V134.022C115.22 135.143 115.48 135.718 116.092 135.718C116.639 135.718 116.834 135.283 116.834 134.476H117.585C117.585 135.496 117.168 136.397 116.092 136.397C114.941 136.397 114.422 135.598 114.422 133.845C114.422 132.093 114.951 131.294 116.092 131.294C117.15 131.293 117.585 131.97 117.585 133.213Z" fill="#373737"/>
<path d="M122.215 133.844C122.215 135.598 121.612 136.396 120.471 136.396C119.331 136.396 118.727 135.597 118.727 133.844C118.727 132.092 119.331 131.293 120.471 131.293C121.612 131.293 122.215 132.092 122.215 133.844ZM119.524 133.668V134.021C119.524 135.143 119.841 135.718 120.471 135.718C121.102 135.718 121.418 135.143 121.418 134.021V133.668C121.418 132.546 121.102 131.97 120.471 131.97C119.841 131.97 119.524 132.546 119.524 133.668Z" fill="#373737"/>
<path d="M128.828 132.768V136.284H128.067V132.824C128.067 132.147 127.799 131.97 127.437 131.97C126.983 131.97 126.602 132.462 126.602 133.306V136.284H125.842V132.824C125.842 132.147 125.573 131.97 125.211 131.97C124.757 131.97 124.367 132.462 124.367 133.306V136.284H123.606V131.405H124.181L124.284 131.97H124.34C124.599 131.488 124.989 131.293 125.452 131.293C125.935 131.293 126.316 131.497 126.492 131.998C126.751 131.535 127.215 131.293 127.679 131.293C128.365 131.293 128.828 131.683 128.828 132.768Z" fill="#373737"/>
<path d="M133.681 133.584V134.067H131.037C131.046 135.208 131.38 135.718 132.104 135.718C132.586 135.718 132.93 135.301 132.93 134.623H133.681C133.681 135.718 133.031 136.395 132.086 136.395C130.871 136.395 130.239 135.653 130.239 133.843C130.239 132.091 130.852 131.293 132.076 131.293C133.143 131.293 133.681 131.952 133.681 133.584ZM131.046 133.39H132.883C132.883 132.463 132.605 131.97 132.075 131.97C131.399 131.97 131.111 132.453 131.046 133.39Z" fill="#373737"/>
<path d="M140.62 133.213H139.833C139.833 132.37 139.675 131.97 139.127 131.97C138.524 131.97 138.255 132.546 138.255 133.668V134.022C138.255 135.143 138.515 135.718 139.127 135.718C139.674 135.718 139.869 135.283 139.869 134.476H140.62C140.62 135.496 140.204 136.397 139.127 136.397C137.977 136.397 137.457 135.598 137.457 133.845C137.457 132.093 137.986 131.294 139.127 131.294C140.184 131.293 140.62 131.97 140.62 133.213Z" fill="#373737"/>
<path d="M144.934 132.656V135.394C144.934 135.624 145.064 135.718 145.195 135.718H145.491V136.247C145.407 136.294 145.231 136.357 144.99 136.357C144.591 136.357 144.313 136.117 144.22 135.755H144.174C143.924 136.154 143.497 136.395 142.986 136.395C142.504 136.395 141.706 136.2 141.706 135.022C141.706 133.677 142.754 133.389 144.173 133.389V132.758C144.173 132.294 144.025 131.969 143.403 131.969C142.829 131.969 142.652 132.369 142.652 132.74V132.851H141.901C141.891 132.795 141.891 132.731 141.891 132.648C141.891 131.756 142.541 131.293 143.459 131.293C144.442 131.293 144.934 131.794 144.934 132.656ZM144.174 134.067C143.182 134.067 142.504 134.215 142.504 134.976C142.504 135.532 142.736 135.718 143.162 135.718C143.645 135.718 144.174 135.319 144.174 134.512V134.067Z" fill="#373737"/>
<path d="M147.31 136.284H146.549V129.577H147.31V136.284Z" fill="#373737"/>
<path d="M149.462 136.284H148.702V129.577H149.462V136.284Z" fill="#373737"/>
<path d="M154.22 133.584V134.067H151.577C151.586 135.208 151.919 135.718 152.644 135.718C153.126 135.718 153.47 135.301 153.47 134.623H154.22C154.22 135.718 153.571 136.395 152.625 136.395C151.411 136.395 150.779 135.653 150.779 133.843C150.779 132.091 151.391 131.293 152.615 131.293C153.683 131.293 154.22 131.952 154.22 133.584ZM151.587 133.39H153.423C153.423 132.463 153.145 131.97 152.616 131.97C151.939 131.97 151.651 132.453 151.587 133.39Z" fill="#373737"/>
<path d="M158.758 136.284H158.183L158.081 135.718H158.034C157.802 136.164 157.413 136.396 156.968 136.396C156.04 136.396 155.456 135.625 155.456 133.836C155.456 132.063 156.105 131.293 156.912 131.293C157.386 131.293 157.784 131.507 157.951 131.869H157.998V129.578H158.759V136.284H158.758ZM156.253 133.668V134.021C156.253 135.236 156.541 135.718 157.125 135.718C157.71 135.718 157.997 135.143 157.997 134.021V133.705C157.997 132.555 157.71 131.97 157.125 131.97C156.541 131.97 156.253 132.453 156.253 133.668Z" fill="#373737"/>
<path d="M163.117 131.071H163.488V132.072H162.561V131.154L163.006 129.92H163.488L163.117 131.071ZM164.296 131.071H164.666V132.072H163.739V131.154L164.184 129.92H164.666L164.296 131.071Z" fill="#373737"/>
<path d="M166.004 136.284V129.92H166.82V135.542H169.417V136.284H166.004V136.284Z" fill="#373737"/>
<path d="M173.907 133.844C173.907 135.598 173.304 136.396 172.163 136.396C171.023 136.396 170.419 135.597 170.419 133.844C170.419 132.092 171.023 131.293 172.163 131.293C173.304 131.293 173.907 132.092 173.907 133.844ZM171.217 133.668V134.021C171.217 135.143 171.533 135.718 172.164 135.718C172.795 135.718 173.11 135.143 173.11 134.021V133.668C173.11 132.546 172.795 131.97 172.164 131.97C171.533 131.97 171.217 132.546 171.217 133.668Z" fill="#373737"/>
<path d="M178.083 132.629C178.083 132.694 178.073 132.787 178.073 132.805H177.285V132.722C177.285 132.341 177.128 131.962 176.608 131.962C176.07 131.962 175.95 132.36 175.95 132.629C175.95 133.696 178.176 133.074 178.176 134.892C178.176 135.941 177.517 136.395 176.617 136.395C175.495 136.395 175.049 135.69 175.049 134.966C175.049 134.837 175.059 134.781 175.059 134.762H175.857V134.854C175.857 135.467 176.209 135.726 176.654 135.726C177.053 135.726 177.387 135.477 177.387 135.003C177.387 133.779 175.161 134.437 175.161 132.684C175.161 131.822 175.755 131.292 176.683 131.292C177.591 131.293 178.083 131.906 178.083 132.629Z" fill="#373737"/>
<path d="M180.234 130.486H179.474V129.578H180.234V130.486ZM180.234 136.284H179.474V131.405H180.234V136.284Z" fill="#373737"/>
<path d="M184.836 132.768V136.284H184.075V132.824C184.075 132.147 183.796 131.97 183.388 131.97C182.906 131.97 182.479 132.462 182.479 133.306V136.284H181.719V131.405H182.294L182.396 131.97H182.452C182.721 131.488 183.148 131.293 183.63 131.293C184.363 131.293 184.836 131.683 184.836 132.768Z" fill="#373737"/>
<path d="M189.901 130.617C189.901 131.201 189.595 131.655 189.085 131.786C189.354 132.063 189.522 132.453 189.522 132.935C189.522 133.947 188.909 134.569 187.963 134.577H187.453C187.203 134.577 187.008 134.773 187.008 135.014C187.008 135.255 187.211 135.449 187.453 135.449H188.845C189.549 135.449 189.994 135.969 189.994 136.59C189.994 137.36 189.493 137.973 188.567 137.973H187.184C186.386 137.973 185.978 137.452 185.978 136.813C185.978 136.34 186.22 135.922 186.61 135.774C186.359 135.617 186.21 135.329 186.21 135.041C186.21 134.643 186.488 134.345 186.896 134.197C186.544 133.909 186.331 133.482 186.331 132.935C186.331 131.916 186.933 131.293 187.926 131.293C188.176 131.293 188.427 131.359 188.631 131.47C189.067 131.237 189.187 130.922 189.234 130.617H189.901ZM187.304 136.173C186.914 136.173 186.738 136.423 186.738 136.739C186.738 137.054 186.924 137.314 187.304 137.314H188.649C188.974 137.314 189.224 137.054 189.224 136.739C189.224 136.423 189.038 136.173 188.649 136.173H187.304ZM187.091 132.935C187.091 133.585 187.379 133.947 187.916 133.947C188.453 133.947 188.751 133.558 188.751 132.935C188.751 132.287 188.454 131.924 187.916 131.924C187.378 131.924 187.091 132.314 187.091 132.935Z" fill="#373737"/>
<path d="M191.701 130.839L191.256 132.072H190.773L191.144 130.922H190.773V129.92H191.701V130.839ZM192.879 130.839L192.434 132.072H191.951L192.322 130.922H191.951V129.92H192.879V130.839Z" fill="#373737"/>
<path d="M275.428 98.3486H6.34131V99.2785H275.428V98.3486Z" fill="#373737"/>
<path d="M20.5735 93.451C19.2323 93.451 18.0935 93.0564 17.1541 92.2698C16.2147 91.4822 15.7458 90.5381 15.7458 89.4374V80.2561C15.7458 79.1382 16.2188 78.1872 17.1629 77.4035C18.1059 76.6213 19.2435 76.2297 20.5735 76.2297C21.9147 76.2297 23.0512 76.6228 23.9853 77.4109C24.9182 78.1985 25.3847 79.1466 25.3847 80.2561V82.1753H22.2306V80.2026C22.2306 79.7997 22.0588 79.4562 21.7164 79.1691C21.3729 78.8835 20.9594 78.7402 20.4776 78.7402C19.9947 78.7402 19.5841 78.8835 19.2464 79.1691C18.9088 79.4562 18.7394 79.7997 18.7394 80.2026V89.4104C18.7394 89.8133 18.9088 90.1558 19.2464 90.4375C19.5841 90.7192 19.9947 90.8605 20.4776 90.8605C20.9588 90.8605 21.3723 90.7201 21.7164 90.439C22.0588 90.1583 22.2306 89.8167 22.2306 89.4148V86.1089H20.5417V83.5591H25.3841V89.4379C25.3841 90.5567 24.9111 91.5048 23.9682 92.2831C23.0241 93.0623 21.8929 93.451 20.5735 93.451Z" fill="#373737"/>
<path d="M32.2519 76.418C33.946 76.418 35.1907 76.8071 35.9848 77.5854C36.6813 78.2655 37.0301 79.2146 37.0301 80.4315V82.8739C37.0301 84.0643 36.4877 85.0713 35.4048 85.8937L37.6571 93.2358H34.3695L32.5254 86.9007C32.4395 86.9007 32.3483 86.9007 32.2524 86.9007H30.4983V93.2358H27.4572V76.418H32.2519ZM34.0695 80.4713C34.0695 79.4958 33.4907 79.0075 32.3319 79.0075H30.4977V84.3907H32.3319C32.8148 84.3907 33.2254 84.2474 33.563 83.9603C33.9007 83.6747 34.0701 83.3297 34.0701 82.9268V80.4713H34.0695Z" fill="#373737"/>
<path d="M43.9919 76.2034C45.3331 76.2034 46.4731 76.5979 47.4113 77.3845C48.3502 78.1721 48.8196 79.1212 48.8196 80.2307V89.411C48.8196 90.5299 48.3466 91.4809 47.4037 92.2636C46.4596 93.0472 45.3219 93.4383 43.9919 93.4383C42.6508 93.4383 41.5143 93.0453 40.5819 92.2572C39.649 91.4696 39.1813 90.5215 39.1813 89.411V80.2307C39.1813 79.1119 39.6543 78.1618 40.5984 77.3781C41.5413 76.5945 42.6737 76.2034 43.9919 76.2034ZM45.649 80.1767C45.649 79.7738 45.4807 79.4313 45.1419 79.1496C44.8043 78.868 44.3937 78.7266 43.9119 78.7266C43.429 78.7266 43.0155 78.868 42.6731 79.1496C42.3296 79.4313 42.1572 79.7738 42.1572 80.1767V89.3845C42.1572 89.7874 42.329 90.1289 42.6731 90.4116C43.0155 90.6933 43.429 90.8346 43.9119 90.8346C44.3937 90.8346 44.8043 90.6933 45.1419 90.4116C45.4807 90.1289 45.649 89.7874 45.649 89.3845V80.1767Z" fill="#373737"/>
<path d="M62.8401 76.418H66.0319L62.8783 93.2358H59.9825L58.2483 83.9829L56.6307 93.2358H53.7207L50.3442 76.418H53.5307L55.1236 85.4241L56.5872 76.418H59.7725L61.3636 85.4168L62.8401 76.418Z" fill="#373737"/>
<path d="M70.7908 78.9677H67.5561V76.418H77.049V78.9677H73.832V93.2358H70.7908V78.9677Z" fill="#373737"/>
<path d="M81.9695 86.1087V93.2358H78.9283V76.418H81.9695V83.5589H85.6378V76.418H88.6789V93.2358H85.6378V86.1087H81.9695Z" fill="#373737"/>
<path d="M109.411 89.0489C109.432 90.2202 109.066 91.2232 108.316 92.055C107.823 92.6179 107.125 93.0168 106.225 93.2499C105.742 93.3745 105.179 93.4374 104.535 93.4374C103.345 93.4374 102.357 93.1915 101.575 92.6993C100.92 92.2964 100.403 91.7483 100.022 91.0554C99.6406 90.3615 99.4182 89.5676 99.3535 88.672L102.251 88.4983C102.378 89.4787 102.689 90.1883 103.184 90.6295C103.548 90.9627 103.966 91.1197 104.439 91.102C105.104 91.0844 105.635 90.811 106.032 90.2825C106.235 90.0229 106.338 89.651 106.338 89.1681C106.338 88.4693 105.956 87.775 105.195 87.0855C104.595 86.611 103.694 85.8995 102.492 84.9494C101.484 84.1343 100.771 83.4046 100.353 82.7593C99.9018 82.0336 99.6765 81.246 99.6765 80.3951C99.6765 78.864 100.293 77.704 101.527 76.9154C102.288 76.4409 103.232 76.2034 104.359 76.2034C105.442 76.2034 106.37 76.4046 107.142 76.8074C107.743 77.1205 108.228 77.5592 108.599 78.1226C108.969 78.6869 109.192 79.3351 109.266 80.0692L106.354 80.5119C106.268 79.8234 106.033 79.2865 105.646 78.9018C105.368 78.6246 104.965 78.4852 104.441 78.4852C103.882 78.4852 103.458 78.6908 103.169 79.103C102.932 79.4343 102.815 79.8455 102.815 80.3377C102.815 81.1076 103.212 81.8898 104.005 82.6857C104.305 82.9905 104.756 83.3482 105.356 83.7589C106.064 84.2516 106.531 84.5961 106.757 84.7934C107.506 85.4195 108.086 86.0368 108.494 86.6448C108.688 86.9314 108.843 87.195 108.961 87.4369C109.25 88.0375 109.399 88.5744 109.411 89.0489Z" fill="#373737"/>
<path d="M114.17 78.9677H110.935V76.418H120.428V78.9677H117.211V93.2358H114.17V78.9677Z" fill="#373737"/>
<path d="M127.102 76.418C128.796 76.418 130.041 76.8071 130.835 77.5854C131.531 78.2655 131.88 79.2146 131.88 80.4315V82.8739C131.88 84.0643 131.338 85.0713 130.255 85.8937L132.507 93.2358H129.22L127.376 86.9007C127.29 86.9007 127.198 86.9007 127.103 86.9007H125.348V93.2358H122.307V76.418H127.102ZM128.92 80.4713C128.92 79.4958 128.341 79.0075 127.182 79.0075H125.348V84.3907H127.182C127.665 84.3907 128.076 84.2474 128.413 83.9603C128.751 83.6747 128.92 83.3297 128.92 82.9268L128.92 80.4713Z" fill="#373737"/>
<path d="M138.292 89.37L137.552 93.2358H134.386L137.814 76.418H141.997L145.376 93.2358H142.178L141.467 89.37H138.292ZM139.89 80.2701L138.763 86.9007H141.016L139.89 80.2701Z" fill="#373737"/>
<path d="M147.754 78.9677H144.519V76.418H154.012V78.9677H150.795V93.2358H147.754V78.9677Z" fill="#373737"/>
<path d="M155.891 93.2362V76.4045H164.547V78.9553H158.933V83.5455H163.035V86.0952H158.933V90.6864H164.547V93.2362H155.891Z" fill="#373737"/>
<path d="M170.9 93.451C169.559 93.451 168.42 93.0564 167.481 92.2698C166.541 91.4822 166.072 90.5381 166.072 89.4374V80.2561C166.072 79.1382 166.545 78.1872 167.489 77.4035C168.432 76.6213 169.57 76.2297 170.9 76.2297C172.241 76.2297 173.378 76.6228 174.312 77.4109C175.245 78.1985 175.711 79.1466 175.711 80.2561V82.1753H172.558V80.2026C172.558 79.7997 172.386 79.4562 172.043 79.1691C171.699 78.8835 171.286 78.7402 170.804 78.7402C170.321 78.7402 169.911 78.8835 169.573 79.1691C169.235 79.4562 169.066 79.7997 169.066 80.2026V89.4104C169.066 89.8133 169.235 90.1558 169.573 90.4375C169.911 90.7192 170.321 90.8605 170.804 90.8605C171.286 90.8605 171.699 90.7201 172.043 90.439C172.385 90.1583 172.558 89.8167 172.558 89.4148V86.1089H170.869V83.5591H175.711V89.4379C175.711 90.5567 175.238 91.5048 174.295 92.2831C173.351 93.0623 172.22 93.451 170.9 93.451Z" fill="#373737"/>
<path d="M180.823 93.2358H177.782V76.418H180.823V93.2358Z" fill="#373737"/>
<path d="M182.975 93.2362V76.4045H191.631V78.9553H186.017V83.5455H190.12V86.0952H186.017V90.6864H191.631V93.2362H182.975Z" fill="#373737"/>
<path d="M203.213 89.0489C203.235 90.2202 202.869 91.2232 202.119 92.055C201.626 92.6179 200.928 93.0168 200.028 93.2499C199.545 93.3745 198.982 93.4374 198.338 93.4374C197.148 93.4374 196.16 93.1915 195.378 92.6993C194.723 92.2964 194.206 91.7483 193.826 91.0554C193.444 90.3615 193.222 89.5676 193.157 88.672L196.054 88.4983C196.182 89.4787 196.493 90.1883 196.987 90.6295C197.351 90.9627 197.769 91.1197 198.242 91.102C198.907 91.0844 199.438 90.811 199.835 90.2825C200.039 90.0229 200.141 89.651 200.141 89.1681C200.141 88.4693 199.759 87.775 198.998 87.0855C198.398 86.611 197.496 85.8995 196.295 84.9494C195.287 84.1343 194.574 83.4046 194.156 82.7593C193.705 82.0336 193.48 81.246 193.48 80.3951C193.48 78.864 194.097 77.704 195.331 76.9154C196.092 76.4409 197.036 76.2034 198.162 76.2034C199.245 76.2034 200.173 76.4046 200.945 76.8074C201.546 77.1205 202.031 77.5592 202.401 78.1226C202.772 78.6869 202.994 79.3351 203.069 80.0692L200.156 80.5119C200.071 79.8234 199.835 79.2865 199.449 78.9018C199.17 78.6246 198.768 78.4852 198.243 78.4852C197.684 78.4852 197.261 78.6908 196.971 79.103C196.735 79.4343 196.617 79.8455 196.617 80.3377C196.617 81.1076 197.014 81.8898 197.808 82.6857C198.107 82.9905 198.558 83.3482 199.159 83.7589C199.866 84.2516 200.333 84.5961 200.559 84.7934C201.309 85.4195 201.889 86.0368 202.296 86.6448C202.49 86.9314 202.645 87.195 202.763 87.4369C203.053 88.0375 203.202 88.5744 203.213 89.0489Z" fill="#373737"/>
<g opacity="0.91">
<path d="M120.81 45.3972H106.024V52.9911H120.81V45.3972Z" fill="white"/>
</g>
<g opacity="0.91">
<path d="M142.989 38.7351H128.204V52.9909H142.989V38.7351Z" fill="white"/>
</g>
<g opacity="0.91">
<path d="M165.167 33.9397H150.384V52.9903H165.167V33.9397Z" fill="white"/>
</g>
<g opacity="0.91">
<path d="M187.344 28.3445H172.562V52.9903H187.344V28.3445Z" fill="white"/>
</g>
<g opacity="0.91">
<path d="M210.637 18.7334H195.852V52.9904H210.637V18.7334Z" fill="white"/>
</g>
<g opacity="0.91">
<path d="M232.951 11.9553H218.165V52.9911H232.951V11.9553Z" fill="white"/>
</g>
<g opacity="0.91">
<path d="M256.243 5.64941H241.459V52.9904H256.243V5.64941Z" fill="white"/>
</g>
<g opacity="0.91">
<path d="M120.81 48.7966H106.024V52.9908H120.81V48.7966Z" fill="#FE4A0F"/>
</g>
<g opacity="0.91">
<path d="M142.989 48.9321H128.204V53.1116H142.989V48.9321Z" fill="#FE4A0F"/>
</g>
<g opacity="0.91">
<path d="M165.167 45.291H150.384V52.9909H165.167V45.291Z" fill="#FE4A0F"/>
</g>
<g opacity="0.91">
<path d="M187.344 39.3804H172.562V52.9909H187.344V39.3804Z" fill="#FE4A0F"/>
</g>
<g opacity="0.91">
<path d="M210.637 36.3743H195.852V52.9909H210.637V36.3743Z" fill="#FE4A0F"/>
</g>
<g opacity="0.91">
<path d="M232.951 30.3286H218.165V52.9904H232.951V30.3286Z" fill="#FE4A0F"/>
</g>
<g opacity="0.91">
<path d="M256.243 18.5388H241.459V52.9911H256.243V18.5388Z" fill="#FE4A0F"/>
</g>
<defs>
<linearGradient id="paint0_linear_0_816" x1="49.0983" y1="4.12211" x2="49.5108" y2="66.1205" gradientUnits="userSpaceOnUse">
<stop offset="0.00760001" stop-color="#FF6F40"/>
<stop offset="1" stop-color="#FFB096"/>
</linearGradient>
</defs>
</svg>
