<svg width="302" height="307" viewBox="0 0 302 307" fill="none" xmlns="http://www.w3.org/2000/svg">
<path d="M253.429 23.3781H278.963L291.013 44.8955M253.429 23.3781H227.895L239.945 1H265.766L253.429 23.3781ZM253.429 23.3781L278.963 66.4129H303.062L291.013 44.8955M291.013 44.8955H239.945L253.429 66.4129" stroke="#FE4A0F" stroke-width="0.5"/>
<path d="M241.093 88.2178L253.716 111.17H278.39L266.34 88.2178" stroke="#FE4A0F" stroke-width="0.5"/>
<path d="M203.795 110.595H227.321M227.321 110.595L252.568 66.4131H277.815L241.092 131.826L227.321 110.595Z" stroke="#FE4A0F" stroke-width="0.5"/>
<path d="M39.1157 262.078H13.2949L1.24512 285.03H25.3446M39.1157 262.078L25.3446 285.03M39.1157 262.078L51.1655 285.03M25.3446 285.03L39.1157 305.687L51.1655 285.03M51.1655 285.03L63.789 262.078H90.7575L90.2236 262.932M51.1655 285.03H76.4126M76.4126 285.03L87.8885 305.687M76.4126 285.03L90.2236 262.932M63.789 305.687H87.8885M87.8885 305.687L101.086 283.882M90.2236 262.932L101.086 283.882M101.086 283.882H128.054M114.283 305.687L128.054 283.882M128.054 283.882L139.53 305.687H165.351L152.154 283.882H128.054Z" stroke="#FE4A0F" stroke-width="0.5"/>
<path d="M63.7889 305.687L52.313 285.03" stroke="#FE4A0F" stroke-width="0.5"/>
<path d="M114.857 305.687H89.0361" stroke="#FE4A0F" stroke-width="0.5"/>
<path d="M114.857 219.043L89.6099 262.078H114.857L140.104 219.043M114.857 219.043H89.6099L76.4126 241.421H151.58L165.351 219.043H140.104M114.857 219.043H140.104" stroke="#FE4A0F" stroke-width="0.5"/>
<path d="M127.481 241.421L139.53 262.651H164.204M164.204 262.651L152.728 241.421L176.827 283.882C184.02 283.882 193.19 283.882 202.648 283.882M164.204 262.651H189.738M278.389 283.882L265.766 306.26C260.793 298.801 251.191 283.882 252.569 283.882C253.562 283.882 227.141 283.882 202.648 283.882M278.389 283.882L265.766 262.651H291.587L303.063 283.882M278.389 283.882H303.063M303.063 283.882L291.587 306.26H240.519L215.272 262.651H189.738M189.738 262.651L202.648 283.882" stroke="#FE4A0F" stroke-width="0.5"/>
<path d="M252.568 284.456L241.092 263.226M241.092 263.226H214.124L227.321 241.421M241.092 263.226L252.568 241.421H227.321M227.321 241.421L214.124 219.617H189.45L202.074 241.421H227.321Z" stroke="#FE4A0F" stroke-width="0.5"/>
<path d="M87.8886 219.043L62.6415 174.287H38.542L51.1655 197.812H102.807L113.709 219.043H138.957L128.054 197.812L140.678 175.721M128.054 153.63L138.957 131.826L153.301 153.63L140.678 175.721M128.054 153.63L140.678 175.721M128.054 153.63H99.9383L113.709 175.721M140.678 175.721H165.351L215.272 87.6432M215.272 87.6432H292.16L265.766 131.826L278.389 153.63H303.063L292.16 131.826H215.272L189.531 87.6432M215.272 87.6432L203.222 65.8389H176.827L189.531 87.6432M215.272 87.6432H189.531M76.4126 241.421H51.1655L38.542 219.043H62.6415L76.4126 241.421Z" stroke="#FE4A0F" stroke-width="0.5"/>
<path d="M190.025 88.2178L177.401 109.448L202.648 153.631M202.648 153.631H228.469M202.648 153.631L190.025 175.435M241.093 175.435L254.29 153.631H228.469M241.093 175.435L265.766 219.617H241.093L228.182 197.526M241.093 175.435H215.272M215.272 175.435L228.469 153.631M215.272 175.435H190.025M215.272 175.435L228.182 197.526M190.025 175.435H164.777M228.182 197.526H202.792M164.777 175.435L177.401 197.526H202.792M164.777 175.435H140.678M164.777 175.435L152.154 197.526H127.481M202.792 197.526L177.401 153.631H153.302L140.678 175.435M140.678 175.435L127.481 197.526M102.807 197.526H127.481" stroke="#FE4A0F" stroke-width="0.5"/>
<path d="M113.136 175.435H139.53" stroke="#FE4A0F" stroke-width="0.5"/>
<path d="M229.043 197.813H254.003M254.003 197.813H278.963L290.439 175.435H265.766L254.003 197.813Z" stroke="#FE4A0F" stroke-width="0.5"/>
</svg>
