<svg width="29" height="8" viewBox="0 0 29 8" fill="none" xmlns="http://www.w3.org/2000/svg">
<path d="M2.87573 4.74271H4.48282V5.61373H2.87573V7.82196H2.015V5.61373H0.418701V4.74271H2.015V2.52368H2.87573V4.74271Z" fill="white"/>
<path d="M9.25092 4.26583C9.25092 7.15861 8.51485 7.9467 7.30179 7.9467C6.07843 7.9467 5.35266 7.15861 5.35266 4.26583C5.35266 1.37305 6.07843 0.585938 7.30179 0.585938C8.51485 0.585447 9.25092 1.37305 9.25092 4.26583ZM6.22369 3.90319V4.62846C6.22369 6.11141 6.45138 7.18952 7.30179 7.18952C8.1522 7.18952 8.3799 6.11141 8.3799 4.62846V3.90319C8.3799 2.42024 8.1522 1.34213 7.30179 1.34213C6.45138 1.34213 6.22369 2.42073 6.22369 3.90319Z" fill="white"/>
<path d="M11.3653 7.82196H10.3284V6.70215H11.3653V7.82196Z" fill="white"/>
<path d="M16.1956 2.5655C16.1956 3.23974 15.9365 3.83056 15.4183 4.17259C16.0715 4.49401 16.3409 5.10545 16.3409 5.87293C16.3409 7.01336 15.7707 7.94671 14.3918 7.94671C13.0128 7.94671 12.4426 7.01336 12.4426 5.87293C12.4426 5.10545 12.712 4.49401 13.3549 4.17259C12.847 3.83056 12.5879 3.23974 12.5879 2.5655C12.5879 1.47708 13.1993 0.585449 14.3918 0.585449C15.5842 0.585449 16.1956 1.47708 16.1956 2.5655ZM13.3137 5.87293C13.3137 6.68114 13.6871 7.19002 14.3918 7.19002C15.0969 7.19002 15.4699 6.68163 15.4699 5.87293C15.4699 5.06472 15.0964 4.56713 14.3918 4.56713C13.6866 4.56664 13.3137 5.06472 13.3137 5.87293ZM13.4378 2.57629C13.4378 3.34329 13.8107 3.80947 14.3918 3.80947C14.9728 3.80947 15.356 3.34329 15.356 2.57629C15.356 1.80881 14.9728 1.34263 14.3918 1.34263C13.8107 1.34263 13.4378 1.80881 13.4378 2.57629Z" fill="white"/>
<path d="M20.9439 2.53408C20.9439 3.37419 20.5499 3.83056 20.0214 4.13088V4.17259C20.6225 4.40077 21.0686 4.97049 21.0686 5.91414C21.0686 7.17872 20.2604 7.94621 19.1194 7.94621C17.8234 7.94621 17.1188 7.10659 17.1188 5.8106V5.72767H17.9898V5.84152C17.9898 6.72334 18.3627 7.18952 19.0571 7.18952C19.7314 7.18952 20.198 6.78517 20.198 5.85182C20.198 4.84634 19.6278 4.58724 19.0267 4.58724H18.4359V3.83056H19.0473C19.5974 3.83056 20.0739 3.42621 20.0739 2.58659C20.0739 1.70477 19.6175 1.34262 19.0998 1.34262C18.5296 1.34262 18.1149 1.74697 18.1149 2.6283V2.72154H17.2439V2.53457C17.2439 1.35293 18.0109 0.585938 19.089 0.585938C20.1975 0.585447 20.9439 1.2695 20.9439 2.53408Z" fill="white"/>
<path d="M24.6023 2.46196C24.6023 3.90319 24.1047 4.32815 23.2754 4.32815C22.4461 4.32815 21.9485 3.8924 21.9485 2.46196C21.9485 1.02072 22.4461 0.585449 23.2754 0.585449C24.1047 0.585449 24.6023 1.02072 24.6023 2.46196ZM22.6639 2.37902V2.53409C22.6639 3.22894 22.7778 3.71623 23.2754 3.71623C23.773 3.71623 23.8873 3.22894 23.8873 2.53409V2.37902C23.8873 1.68417 23.773 1.19688 23.2754 1.19688C22.7778 1.19688 22.6639 1.68417 22.6639 2.37902ZM23.5036 7.82206H22.7778L27.1118 0.709604H27.8474L23.5036 7.82206ZM28.6669 6.0805C28.6669 7.52174 28.1693 7.94671 27.34 7.94671C26.5107 7.94671 26.0131 7.51095 26.0131 6.0805C26.0131 4.63927 26.5107 4.204 27.34 4.204C28.1688 4.204 28.6669 4.63878 28.6669 6.0805ZM26.7286 5.99758V6.15313C26.7286 6.84749 26.8419 7.33478 27.34 7.33478C27.8376 7.33478 27.9519 6.84749 27.9519 6.15313V5.99758C27.9519 5.30272 27.8376 4.81593 27.34 4.81593C26.8419 4.81544 26.7286 5.30272 26.7286 5.99758Z" fill="white"/>
</svg>
