<svg width="28" height="28" viewBox="0 0 28 28" fill="none" xmlns="http://www.w3.org/2000/svg">
<path d="M19.1542 8.62894H8.61072C8.34604 8.62894 8.13147 8.8435 8.13147 9.10818V19.6516C8.13147 19.9163 8.34604 20.1309 8.61072 20.1309H19.1542C19.4189 20.1309 19.6334 19.9163 19.6334 19.6516V9.10818C19.6334 8.8435 19.4189 8.62894 19.1542 8.62894Z" fill="#FE4A0F"/>
<path d="M26.3428 10.5464C26.597 10.5464 26.8408 10.4454 27.0206 10.2656C27.2003 10.0859 27.3013 9.8421 27.3013 9.58789C27.3013 9.33368 27.2003 9.08988 27.0206 8.91013C26.8408 8.73038 26.597 8.62939 26.3428 8.62939H25.3843V6.7124C25.3832 5.69591 24.9789 4.72136 24.2602 4.00259C23.5414 3.28382 22.5668 2.87953 21.5504 2.87842H19.6334V1.91992C19.6334 1.66571 19.5324 1.42192 19.3526 1.24216C19.1729 1.06241 18.9291 0.961426 18.6749 0.961426C18.4207 0.961426 18.1769 1.06241 17.9971 1.24216C17.8174 1.42192 17.7164 1.66571 17.7164 1.91992V2.87842H14.8409V1.91992C14.8409 1.66571 14.7399 1.42192 14.5601 1.24216C14.3804 1.06241 14.1366 0.961426 13.8824 0.961426C13.6282 0.961426 13.3844 1.06241 13.2046 1.24216C13.0249 1.42192 12.9239 1.66571 12.9239 1.91992V2.87842H10.0484V1.91992C10.0484 1.66571 9.94742 1.42192 9.76766 1.24216C9.58791 1.06241 9.34411 0.961426 9.0899 0.961426C8.8357 0.961426 8.5919 1.06241 8.41215 1.24216C8.23239 1.42192 8.13141 1.66571 8.13141 1.91992V2.87842H6.21442C5.19792 2.87953 4.22338 3.28382 3.50461 4.00259C2.78584 4.72136 2.38154 5.69591 2.38043 6.7124V8.62939H1.42194C1.16773 8.62939 0.92393 8.73038 0.744177 8.91013C0.564424 9.08988 0.46344 9.33368 0.46344 9.58789C0.46344 9.8421 0.564424 10.0859 0.744177 10.2656C0.92393 10.4454 1.16773 10.5464 1.42194 10.5464H2.38043V13.4219H1.42194C1.16773 13.4219 0.92393 13.5229 0.744177 13.7026C0.564424 13.8824 0.46344 14.1262 0.46344 14.3804C0.46344 14.6346 0.564424 14.8784 0.744177 15.0581C0.92393 15.2379 1.16773 15.3389 1.42194 15.3389H2.38043V18.2144H1.42194C1.16773 18.2144 0.92393 18.3153 0.744177 18.4951C0.564424 18.6748 0.46344 18.9186 0.46344 19.1729C0.46344 19.4271 0.564424 19.6709 0.744177 19.8506C0.92393 20.0304 1.16773 20.1313 1.42194 20.1313H2.38043V22.0483C2.38154 23.0648 2.78584 24.0394 3.50461 24.7582C4.22338 25.4769 5.19792 25.8812 6.21442 25.8823H8.13141V26.8408C8.13141 27.095 8.23239 27.3388 8.41215 27.5186C8.5919 27.6983 8.8357 27.7993 9.0899 27.7993C9.34411 27.7993 9.58791 27.6983 9.76766 27.5186C9.94742 27.3388 10.0484 27.095 10.0484 26.8408V25.8823H12.9239V26.8408C12.9239 27.095 13.0249 27.3388 13.2046 27.5186C13.3844 27.6983 13.6282 27.7993 13.8824 27.7993C14.1366 27.7993 14.3804 27.6983 14.5601 27.5186C14.7399 27.3388 14.8409 27.095 14.8409 26.8408V25.8823H17.7164V26.8408C17.7164 27.095 17.8174 27.3388 17.9971 27.5186C18.1769 27.6983 18.4207 27.7993 18.6749 27.7993C18.9291 27.7993 19.1729 27.6983 19.3526 27.5186C19.5324 27.3388 19.6334 27.095 19.6334 26.8408V25.8823H21.5504C22.5668 25.8812 23.5414 25.4769 24.2602 24.7582C24.9789 24.0394 25.3832 23.0648 25.3843 22.0483V20.1313H26.3428C26.597 20.1313 26.8408 20.0304 27.0206 19.8506C27.2003 19.6709 27.3013 19.4271 27.3013 19.1729C27.3013 18.9186 27.2003 18.6748 27.0206 18.4951C26.8408 18.3153 26.597 18.2144 26.3428 18.2144H25.3843V15.3389H26.3428C26.597 15.3389 26.8408 15.2379 27.0206 15.0581C27.2003 14.8784 27.3013 14.6346 27.3013 14.3804C27.3013 14.1262 27.2003 13.8824 27.0206 13.7026C26.8408 13.5229 26.597 13.4219 26.3428 13.4219H25.3843V10.5464H26.3428ZM21.5504 20.1313C21.5504 20.6398 21.3484 21.1274 20.9889 21.4869C20.6294 21.8464 20.1418 22.0483 19.6334 22.0483H8.13141C7.62299 22.0483 7.1354 21.8464 6.77589 21.4869C6.41639 21.1274 6.21442 20.6398 6.21442 20.1313V8.62939C6.21442 8.12098 6.41639 7.63338 6.77589 7.27388C7.1354 6.91437 7.62299 6.7124 8.13141 6.7124H19.6334C20.1418 6.7124 20.6294 6.91437 20.9889 7.27388C21.3484 7.63338 21.5504 8.12098 21.5504 8.62939V20.1313Z" fill="#FE4A0F"/>
</svg>
