<svg width="21" height="27" viewBox="0 0 21 27" fill="none" xmlns="http://www.w3.org/2000/svg">
<path d="M20.2497 11.4422H12.1247C11.3859 11.4422 10.6773 11.1487 10.1549 10.6263C9.63249 10.1038 9.339 9.39528 9.339 8.65646V0.531459C9.339 0.469891 9.31454 0.410845 9.27101 0.36731C9.22747 0.323774 9.16842 0.299316 9.10686 0.299316H3.76757C2.78248 0.299316 1.83774 0.690642 1.14117 1.38721C0.444609 2.08377 0.0532837 3.02851 0.0532837 4.0136V22.585C0.0532837 23.5701 0.444609 24.5149 1.14117 25.2114C1.83774 25.908 2.78248 26.2993 3.76757 26.2993H16.7676C17.7527 26.2993 18.6974 25.908 19.394 25.2114C20.0905 24.5149 20.4819 23.5701 20.4819 22.585V11.6743C20.4819 11.6127 20.4574 11.5537 20.4139 11.5102C20.3703 11.4666 20.3113 11.4422 20.2497 11.4422Z" fill="#FE4A0F"/>
<path d="M19.7402 9.3871L11.3941 1.04099C11.3778 1.02485 11.3572 1.01388 11.3347 1.00944C11.3123 1.005 11.289 1.0073 11.2679 1.01604C11.2467 1.02479 11.2286 1.03959 11.2159 1.05859C11.2031 1.07758 11.1963 1.09993 11.1962 1.12282V8.65643C11.1962 8.90271 11.294 9.13889 11.4681 9.31303C11.6423 9.48717 11.8785 9.585 12.1247 9.585H19.6584C19.6812 9.58491 19.7036 9.57805 19.7226 9.56529C19.7416 9.55253 19.7564 9.53444 19.7651 9.51329C19.7739 9.49214 19.7762 9.46887 19.7717 9.44642C19.7673 9.42397 19.7563 9.40333 19.7402 9.3871Z" fill="#FE4A0F"/>
</svg>
