<svg width="31" height="25" viewBox="0 0 31 25" fill="none" xmlns="http://www.w3.org/2000/svg">
<path d="M25.982 0.586456H4.98199C3.78852 0.586456 2.64393 1.06056 1.80001 1.90448C0.956101 2.74839 0.481995 3.89298 0.481995 5.08646V20.0865C0.481995 21.2799 0.956101 22.4245 1.80001 23.2684C2.64393 24.1124 3.78852 24.5865 4.98199 24.5865H25.982C27.1755 24.5865 28.3201 24.1124 29.164 23.2684C30.0079 22.4245 30.482 21.2799 30.482 20.0865V5.08646C30.482 3.89298 30.0079 2.74839 29.164 1.90448C28.3201 1.06056 27.1755 0.586456 25.982 0.586456ZM25.982 3.58646L16.232 10.2915C16.004 10.4231 15.7453 10.4924 15.482 10.4924C15.2187 10.4924 14.96 10.4231 14.732 10.2915L4.98199 3.58646H25.982Z" fill="#FE4A0F"/>
</svg>
