<svg width="25" height="25" viewBox="0 0 25 25" fill="none" xmlns="http://www.w3.org/2000/svg">
<path d="M16.62 3.93637C17.7793 3.93983 18.8902 4.40191 19.7099 5.22169C20.5297 6.04147 20.9918 7.15234 20.9953 8.31168V17.0614C20.9918 18.2207 20.5297 19.3316 19.7099 20.1514C18.8902 20.9711 17.7793 21.4332 16.62 21.4367H7.87027C6.71093 21.4332 5.60007 20.9711 4.78028 20.1514C3.9605 19.3316 3.49842 18.2207 3.49496 17.0614V8.31168C3.49842 7.15234 3.9605 6.04147 4.78028 5.22169C5.60007 4.40191 6.71093 3.93983 7.87027 3.93637H16.62ZM16.62 2.18652H7.87027C4.50137 2.18652 1.74512 4.94277 1.74512 8.31168V17.0614C1.74512 20.4303 4.50137 23.1865 7.87027 23.1865H16.62C19.9889 23.1865 22.7451 20.4303 22.7451 17.0614V8.31168C22.7451 4.94277 19.9889 2.18652 16.62 2.18652Z" fill="white"/>
<path d="M17.9325 8.31152C17.6729 8.31152 17.4191 8.23455 17.2033 8.09033C16.9874 7.94611 16.8192 7.74112 16.7199 7.5013C16.6205 7.26147 16.5945 6.99757 16.6452 6.74297C16.6958 6.48837 16.8208 6.2545 17.0044 6.07095C17.1879 5.88739 17.4218 5.76239 17.6764 5.71174C17.931 5.6611 18.1949 5.68709 18.4347 5.78643C18.6746 5.88577 18.8795 6.054 19.0238 6.26984C19.168 6.48568 19.245 6.73944 19.245 6.99902C19.2453 7.17149 19.2116 7.34233 19.1458 7.50173C19.08 7.66114 18.9833 7.80598 18.8614 7.92793C18.7394 8.04988 18.5946 8.14654 18.4352 8.21237C18.2758 8.2782 18.1049 8.31189 17.9325 8.31152ZM12.2451 9.18621C12.9374 9.18621 13.6141 9.39149 14.1897 9.77609C14.7653 10.1607 15.2139 10.7073 15.4788 11.3469C15.7438 11.9865 15.8131 12.6902 15.678 13.3692C15.543 14.0482 15.2096 14.6718 14.7201 15.1614C14.2306 15.6509 13.6069 15.9842 12.928 16.1193C12.249 16.2543 11.5452 16.185 10.9057 15.9201C10.2661 15.6552 9.71945 15.2065 9.33485 14.6309C8.95024 14.0554 8.74496 13.3786 8.74496 12.6864C8.74596 11.7584 9.11504 10.8687 9.77123 10.2125C10.4274 9.55629 11.3171 9.1872 12.2451 9.18621ZM12.2451 7.43637C11.2068 7.43637 10.1917 7.74427 9.32838 8.32115C8.46502 8.89803 7.79211 9.71797 7.39475 10.6773C6.99739 11.6366 6.89342 12.6922 7.096 13.7106C7.29857 14.729 7.79858 15.6645 8.53281 16.3987C9.26703 17.1329 10.2025 17.6329 11.2209 17.8355C12.2393 18.0381 13.2949 17.9341 14.2542 17.5367C15.2135 17.1394 16.0335 16.4665 16.6103 15.6031C17.1872 14.7398 17.4951 13.7247 17.4951 12.6864C17.4951 11.294 16.942 9.95862 15.9574 8.97406C14.9729 7.98949 13.6375 7.43637 12.2451 7.43637Z" fill="white"/>
</svg>
