<svg width="25" height="25" viewBox="0 0 25 25" fill="none" xmlns="http://www.w3.org/2000/svg">
<path d="M21.0656 2.18652H3.53949C2.58184 2.18652 1.74512 2.87559 1.74512 3.82199V21.387C1.74512 22.3386 2.58184 23.1865 3.53949 23.1865H21.0604C22.0232 23.1865 22.7451 22.3329 22.7451 21.387V3.82199C22.7507 2.87559 22.0232 2.18652 21.0656 2.18652ZM8.25465 19.6911H5.24621V10.3371H8.25465V19.6911ZM6.85449 8.91496H6.83293C5.87012 8.91496 5.24668 8.19824 5.24668 7.30105C5.24668 6.38746 5.88652 5.68762 6.8709 5.68762C7.85527 5.68762 8.45762 6.3823 8.47918 7.30105C8.47871 8.19824 7.85527 8.91496 6.85449 8.91496ZM19.2496 19.6911H16.2412V14.5765C16.2412 13.3512 15.8034 12.514 14.715 12.514C13.8834 12.514 13.3912 13.0765 13.1723 13.6245C13.0903 13.8214 13.0682 14.0895 13.0682 14.3632V19.6911H10.0598V10.3371H13.0682V11.6389C13.5061 11.0154 14.19 10.1182 15.7814 10.1182C17.7562 10.1182 19.2501 11.42 19.2501 14.2264L19.2496 19.6911Z" fill="white"/>
</svg>
