<svg width="73" height="74" viewBox="0 0 73 74" fill="none" xmlns="http://www.w3.org/2000/svg">
<path d="M31.4056 9.55763C32.0667 9.04364 33.029 9.52129 33.0193 10.3586L32.9037 20.3721C32.9011 20.5984 32.9753 20.8188 33.1142 20.9975L39.2607 28.9034C39.7747 29.5645 39.297 30.5268 38.4596 30.5171L28.4462 30.4015C28.2199 30.3989 27.9995 30.4731 27.8208 30.6119L19.9149 36.7584C19.2538 37.2724 18.2915 36.7948 18.3012 35.9574L18.4168 25.9439C18.4194 25.7177 18.3452 25.4972 18.2064 25.3186L12.0599 17.4127C11.5459 16.7515 12.0235 15.7893 12.8609 15.7989L22.8744 15.9146C23.1006 15.9172 23.3211 15.843 23.4997 15.7041L31.4056 9.55763Z" fill="#FE4A0F"/>
<path d="M56.4371 14.3982C57.0982 13.8842 58.0605 14.3618 58.0508 15.1992L57.9352 25.2127C57.9326 25.4389 58.0068 25.6594 58.1457 25.838L64.2922 33.7439C64.8062 34.4051 64.3285 35.3673 63.4911 35.3577L53.4776 35.242C53.2514 35.2394 53.0309 35.3136 52.8523 35.4525L44.9464 41.599C44.2853 42.113 43.323 41.6353 43.3327 40.798L43.4483 30.7845C43.4509 30.5582 43.3767 30.3378 43.2379 30.1591L37.0913 22.2532C36.5774 21.5921 37.055 20.6298 37.8924 20.6395L47.9059 20.7551C48.1321 20.7577 48.3526 20.6835 48.5312 20.5447L56.4371 14.3982Z" fill="#FE4A0F"/>
<path d="M56.4371 14.3982C57.0982 13.8842 58.0605 14.3618 58.0508 15.1992L57.9352 25.2127C57.9326 25.4389 58.0068 25.6594 58.1457 25.838L64.2922 33.7439C64.8062 34.4051 64.3285 35.3673 63.4911 35.3577L53.4776 35.242C53.2514 35.2394 53.0309 35.3136 52.8523 35.4525L44.9464 41.599C44.2853 42.113 43.323 41.6353 43.3327 40.798L43.4483 30.7845C43.4509 30.5582 43.3767 30.3378 43.2379 30.1591L37.0913 22.2532C36.5774 21.5921 37.055 20.6298 37.8924 20.6395L47.9059 20.7551C48.1321 20.7577 48.3526 20.6835 48.5312 20.5447L56.4371 14.3982Z" fill="#FE4A0F"/>
<path d="M28.2474 32.9675C28.9085 32.4535 29.8708 32.9312 29.8611 33.7685L29.7455 43.782C29.7429 44.0083 29.8171 44.2287 29.956 44.4073L36.1025 52.3133C36.6165 52.9744 36.1388 53.9367 35.3014 53.927L25.288 53.8114C25.0617 53.8087 24.8413 53.8829 24.6626 54.0218L16.7567 60.1683C16.0956 60.6823 15.1333 60.2047 15.143 59.3673L15.2586 49.3538C15.2612 49.1276 15.187 48.9071 15.0482 48.7285L8.90165 40.8225C8.38766 40.1614 8.86531 39.1992 9.70267 39.2088L19.7162 39.3245C19.9424 39.3271 20.1629 39.2529 20.3415 39.114L28.2474 32.9675Z" fill="#FE4A0F"/>
<path d="M28.2474 32.9675C28.9085 32.4535 29.8708 32.9312 29.8611 33.7685L29.7455 43.782C29.7429 44.0083 29.8171 44.2287 29.956 44.4073L36.1025 52.3133C36.6165 52.9744 36.1388 53.9367 35.3014 53.927L25.288 53.8114C25.0617 53.8087 24.8413 53.8829 24.6626 54.0218L16.7567 60.1683C16.0956 60.6823 15.1333 60.2047 15.143 59.3673L15.2586 49.3538C15.2612 49.1276 15.187 48.9071 15.0482 48.7285L8.90165 40.8225C8.38766 40.1614 8.86531 39.1992 9.70267 39.2088L19.7162 39.3245C19.9424 39.3271 20.1629 39.2529 20.3415 39.114L28.2474 32.9675Z" fill="#FE4A0F"/>
<path d="M53.6122 38.044C54.2733 37.53 55.2356 38.0076 55.2259 38.845L55.1102 48.8585C55.1076 49.0847 55.1818 49.3052 55.3207 49.4838L61.4672 57.3897C61.9812 58.0509 61.5035 59.0131 60.6662 59.0035L50.6527 58.8878C50.4264 58.8852 50.206 58.9594 50.0274 59.0983L42.1214 65.2448C41.4603 65.7588 40.498 65.2811 40.5077 64.4438L40.6234 54.4303C40.626 54.204 40.5518 53.9836 40.4129 53.8049L34.2664 45.899C33.7524 45.2379 34.2301 44.2756 35.0674 44.2853L45.0809 44.4009C45.3072 44.4035 45.5276 44.3293 45.7062 44.1905L53.6122 38.044Z" fill="#FE4A0F"/>
</svg>
