<svg width="25" height="25" viewBox="0 0 25 25" fill="none" xmlns="http://www.w3.org/2000/svg">
<g clip-path="url(#clip0_0_1104)">
<path d="M23.4951 5.81934C22.6511 6.18607 21.7581 6.42768 20.8443 6.53653C21.8046 5.97421 22.5268 5.08086 22.8754 4.02403C21.9675 4.55493 20.9758 4.92744 19.9429 5.12559C19.508 4.66975 18.9849 4.30711 18.4054 4.05972C17.8259 3.81234 17.2022 3.68537 16.5721 3.68653C14.0212 3.68653 11.9568 5.72091 11.9568 8.22872C11.955 8.57755 11.995 8.92533 12.0759 9.26466C10.2467 9.1789 8.45552 8.71227 6.81698 7.89462C5.17845 7.07697 3.72863 5.92629 2.56027 4.51622C2.15039 5.20721 1.93362 5.99561 1.93262 6.79903C1.93262 8.37403 2.75434 9.76622 3.99512 10.5818C3.25999 10.5644 2.53993 10.3698 1.89605 10.0147V10.0709C1.89605 12.274 3.4898 14.1068 5.59918 14.524C5.20252 14.6298 4.79376 14.6833 4.38324 14.6834C4.09195 14.6839 3.80132 14.6557 3.51559 14.599C4.10199 16.4037 5.80871 17.7162 7.83043 17.7537C6.18764 19.0198 4.17072 19.7041 2.09668 19.699C1.72853 19.6985 1.36073 19.6766 0.995117 19.6334C3.10505 20.9807 5.55767 21.6933 8.06106 21.6865C16.5623 21.6865 21.2067 14.7631 21.2067 8.75841C21.2067 8.56153 21.2015 8.36466 21.1921 8.17247C22.0936 7.53125 22.8735 6.7344 23.4951 5.81934Z" fill="white"/>
</g>
<defs>
<clipPath id="clip0_0_1104">
<rect width="24" height="24" fill="white" transform="translate(0.245117 0.686523)"/>
</clipPath>
</defs>
</svg>
