<svg width="31" height="23" viewBox="0 0 31 23" fill="none" xmlns="http://www.w3.org/2000/svg">
<path d="M0.273438 19.5319C0.273438 21.1221 1.66707 22.4214 3.37252 22.4214H27.7198C29.4252 22.4214 30.8189 21.1221 30.8189 19.5319V0.202148H0.273438V19.5319ZM6.10255 4.47363C6.93618 4.47363 7.63617 4.97207 7.90343 5.66033H13.2743V4.1295H17.8307V5.66033H23.1889C23.4561 4.97207 24.1562 4.47363 24.9898 4.47363C26.0398 4.47363 26.8989 5.27461 26.8989 6.25358C26.8989 7.23852 26.0398 8.03353 24.9898 8.03353C24.1562 8.03353 23.4498 7.54107 23.1889 6.84693H20.1152C22.4443 8.17003 24.0416 10.4661 24.3216 13.0589H26.008V17.3071H21.4516V13.0589H23.0425C22.6989 10.3238 20.6498 8.00388 17.8307 7.17325V8.37766H13.2743V7.17325C10.4616 8.00388 8.41255 10.3296 8.06252 13.0589H9.65343V17.3071H5.09708V13.0589H6.78346C7.06342 10.4661 8.6607 8.17003 10.9898 6.84693H7.90343C7.64254 7.54107 6.93618 8.03353 6.10255 8.03353C5.05253 8.03353 4.19346 7.23852 4.19346 6.25358C4.19346 5.27461 5.05253 4.47363 6.10255 4.47363Z" fill="#FE4A0F"/>
</svg>
