<svg width="73" height="74" viewBox="0 0 73 74" fill="none" xmlns="http://www.w3.org/2000/svg">
<path d="M31.4056 9.34278C32.0667 8.82879 33.029 9.30645 33.0193 10.1438L32.9037 20.1573C32.9011 20.3835 32.9753 20.604 33.1142 20.7826L39.2607 28.6886C39.7747 29.3497 39.297 30.3119 38.4596 30.3023L28.4462 30.1866C28.2199 30.184 27.9995 30.2582 27.8208 30.3971L19.9149 36.5436C19.2538 37.0576 18.2915 36.5799 18.3012 35.7426L18.4168 25.7291C18.4194 25.5028 18.3452 25.2824 18.2064 25.1038L12.0599 17.1978C11.5459 16.5367 12.0235 15.5744 12.8609 15.5841L22.8744 15.6997C23.1006 15.7024 23.3211 15.6282 23.4997 15.4893L31.4056 9.34278Z" fill="white"/>
<path d="M56.4371 14.1831C57.0982 13.6691 58.0605 14.1468 58.0508 14.9841L57.9352 24.9976C57.9326 25.2239 58.0068 25.4443 58.1457 25.623L64.2922 33.5289C64.8062 34.19 64.3285 35.1523 63.4911 35.1426L53.4776 35.027C53.2514 35.0244 53.0309 35.0985 52.8523 35.2374L44.9464 41.3839C44.2853 41.8979 43.323 41.4203 43.3327 40.5829L43.4483 30.5694C43.4509 30.3432 43.3767 30.1227 43.2379 29.9441L37.0913 22.0382C36.5774 21.377 37.055 20.4148 37.8924 20.4244L47.9059 20.5401C48.1321 20.5427 48.3526 20.4685 48.5312 20.3296L56.4371 14.1831Z" fill="white"/>
<path d="M56.4371 14.1831C57.0982 13.6691 58.0605 14.1468 58.0508 14.9841L57.9352 24.9976C57.9326 25.2239 58.0068 25.4443 58.1457 25.623L64.2922 33.5289C64.8062 34.19 64.3285 35.1523 63.4911 35.1426L53.4776 35.027C53.2514 35.0244 53.0309 35.0985 52.8523 35.2374L44.9464 41.3839C44.2853 41.8979 43.323 41.4203 43.3327 40.5829L43.4483 30.5694C43.4509 30.3432 43.3767 30.1227 43.2379 29.9441L37.0913 22.0382C36.5774 21.377 37.055 20.4148 37.8924 20.4244L47.9059 20.5401C48.1321 20.5427 48.3526 20.4685 48.5312 20.3296L56.4371 14.1831Z" fill="white"/>
<path d="M28.2474 32.7525C28.9085 32.2385 29.8708 32.7161 29.8611 33.5535L29.7455 43.567C29.7429 43.7932 29.8171 44.0137 29.956 44.1923L36.1025 52.0982C36.6165 52.7593 36.1388 53.7216 35.3014 53.7119L25.288 53.5963C25.0617 53.5937 24.8413 53.6679 24.6626 53.8068L16.7567 59.9533C16.0956 60.4673 15.1333 59.9896 15.143 59.1522L15.2586 49.1388C15.2612 48.9125 15.187 48.6921 15.0482 48.5134L8.90165 40.6075C8.38766 39.9464 8.86531 38.9841 9.70267 38.9938L19.7162 39.1094C19.9424 39.112 20.1629 39.0378 20.3415 38.899L28.2474 32.7525Z" fill="white"/>
<path d="M28.2474 32.7525C28.9085 32.2385 29.8708 32.7161 29.8611 33.5535L29.7455 43.567C29.7429 43.7932 29.8171 44.0137 29.956 44.1923L36.1025 52.0982C36.6165 52.7593 36.1388 53.7216 35.3014 53.7119L25.288 53.5963C25.0617 53.5937 24.8413 53.6679 24.6626 53.8068L16.7567 59.9533C16.0956 60.4673 15.1333 59.9896 15.143 59.1522L15.2586 49.1388C15.2612 48.9125 15.187 48.6921 15.0482 48.5134L8.90165 40.6075C8.38766 39.9464 8.86531 38.9841 9.70267 38.9938L19.7162 39.1094C19.9424 39.112 20.1629 39.0378 20.3415 38.899L28.2474 32.7525Z" fill="white"/>
<path d="M53.6123 37.8291C54.2734 37.3151 55.2357 37.7928 55.226 38.6301L55.1104 48.6436C55.1078 48.8699 55.1819 49.0903 55.3208 49.269L61.4673 57.1749C61.9813 57.836 61.5037 58.7983 60.6663 58.7886L50.6528 58.673C50.4266 58.6704 50.2061 58.7445 50.0275 58.8834L42.1216 65.0299C41.4604 65.5439 40.4982 65.0663 40.5078 64.2289L40.6235 54.2154C40.6261 53.9892 40.5519 53.7687 40.413 53.5901L34.2665 45.6841C33.7525 45.023 34.2302 44.0608 35.0675 44.0704L45.081 44.1861C45.3073 44.1887 45.5277 44.1145 45.7064 43.9756L53.6123 37.8291Z" fill="white"/>
</svg>
